<svg xmlns="http://www.w3.org/2000/svg" version="1.1" xmlns:xlink="http://www.w3.org/1999/xlink" xmlns:svgjs="http://svgjs.dev/svgjs" width="2000" height="2250" viewBox="0 0 2000 2250"><g transform="matrix(1,0,0,1,0.0005875000000514774,0)"><svg viewBox="0 0 320 360" data-background-color="#ffffff" preserveAspectRatio="xMidYMid meet" height="2250" width="2000" xmlns="http://www.w3.org/2000/svg" xmlns:xlink="http://www.w3.org/1999/xlink"><g id="tight-bounds" transform="matrix(1,0,0,1,-0.000046999999995023245,0)"><svg viewBox="0 0 320 360" height="360" width="320"><rect width="320.000141" height="360" fill="url(#aea0a9f3-2888-41d0-8935-0a07ed6db7ab)" mask="url(#9fa5fc96-5d72-453e-9fb3-c9497de12f1b)" data-fill-palette-color="tertiary"></rect><g><svg></svg></g><g><svg viewBox="0 0 320 360" height="360" width="320"><g><path transform="translate(-74.99272,-51.79039) scale(4.65793,4.65793)" d="M20.6 59.9l0.8 1-0.4-1.3c-0.1-0.6-0.8 0.1-0.4 0.3M21.5 59.3c0.3 0.5 0.6 1 0.6 1.5 0 0.7 0.6 1 1.1 1.2-0.7-0.8-1.1-3-1.7-2.7M59.9 16.9c1.7 0 3.3-0.2 5.1 0.2 4.4 1.1 8.1 3.3 10.6 6.4l7 11.2c0.3 2.8 0.9 5.9 0.8 9.3 0.7 0 0.6-1 1.4-1.2-0.8 2-1.2 4.5-1.4 7.4-0.5-1.6 0-4 0.1-5.3-0.7 1.1-1.1 0.3-1.1-0.2 0.1-0.8-0.3-0.7-0.6-1-1.1-1-1.8-2.1-2.6-3.8 0.5-1.3 0.6-3.2-1-4.2-0.5-0.3-1.1-0.8-1.4-1.6-0.4-1.1-1.1-2.4-0.9-4.1 0.1-0.5-1.5 1.1-2.4 0.4-3.9-2.7-7.8-5.8-12.5-8.4-2.5 0-4.3-0.9-5.2-2-0.8-1-0.2-2.3 1-2.4 0.7 0 1.5-0.2 2.1 0.2 0.1-0.4 0.5-0.9 1-0.9M50 14.6l0.2 0.1c1 0.2 1.5 1.6 2.6 1.1 0 0.7 0.1 1.4-0.1 1.9-0.3 0.8-1.2 0.8-1.9 0.8-6.7-0.4-10.6 2.4-14.7 4.8-1.1 0.7-2.3 1.2-3.2 2.1-4.3 4-9 7.7-10.1 15.1l-0.9 8.2c-0.1 0.9-1.1 1.8-0.9 2.9l0.7 4.9c-0.7-0.7-1.1 0.2-0.9 0.6 0.1 0.3 0.5 1.3 1.1 0.4 0.8 1.5 1.6 4.4 2.7 5.7 3.4 4 7.8 7.6 11.4 11.2 0.9-0.2 1.6-0.2 1.8-0.8 0.3 0.6-0.3 1.2-0.8 1.3 1.6 1 3.4 1.9 5.8 2.1 3.1 0.2 6 0.7 8.7 1.4 1.4-0.4 2.8-0.6 4.3-0.7 0.5 0 0.8-0.8 1.4-1l0.1-1c0.6 0.9 0.5-0.3 0.1-0.9 0.7 0.6 0.9 1.1 1.2 1.5 0-0.3 0.8-1.4 0.8-0.1l0.2-1.3c0.3-0.2 0.4 1.1 0.7 0.2 0.3-0.9 0.9-0.2 1.5-0.5-0.2 0.4-0.1 1.2 0.6 0.7l0.8-0.7c0.5 1.2 1.3 0.7 1.7 0.5 4.4-2.8 8.8-6.1 13-9.4l-0.1 1.3 0.5-1.6c0.5 0.5 0.9 0.1 1.1-0.2 0.6-1 1.4-2 2.7-2.9-1.6 4.3-3.5 7.7-5.9 10.5l-1 1.2c0 0.7-0.2 1.6-1 1.7-0.4 0.1-1.2-0.2-1.8 0.4-0.3 0.4 0.7 1.2-0.1 0.6-0.7-0.5-1.4 0-2.2 0.2-0.6 0.2 0.4 0.8 0.6 1.2 0.2 0.4 0.4 0.8 0.3 1.3l-1.1-1.2c-1.3 0.7-2.1 2-3.2 3-0.5 0.4-0.3 1.1-0.3 1.7-0.7 0-1.5-0.2-1.9 0.2-0.3 0.4-0.2 1-0.2 1.6-1-0.1-1.1-1.6-2-1.3-0.9 0.2-1.9 0.3-2.7 0.8 0.6 1.2-1 0.5-0.8 0.7-1.5-0.9-2.8-1.6-4.4-1-3.4-1.1-7.6-0.6-10.7-0.2 0-0.5 0.1-1-0.1-1.1-0.2 0.5-0.8 0.3-0.7 0.3-1.9-1.3-3.8-2.1-5.8-3.2-1.8 0.2-3.5-0.7-4-1.2-1.4-1.3-3-0.6-4.3-0.9-2.8-0.7-3.8-3.6-4.1-5.6-0.2-1-1-1.4-1.3-1.3-1.3-4.2-3.3-8-4.9-11.9-0.4-1-0.3-2-0.3-3.1 0.5 0.2 1 0.1 0.9-0.6-0.5-3.3-1.7-5.8-3-8.2 0.7-3.4 0.8-7.4 2.4-10.4 1.4-2.7 4-4.1 5.8-6.4 0.6-0.8 0.6-1.9 1.2-2.6 2-2 4-4.1 6.2-5.9 1-0.8 2.2 0 3.7-0.3 0.5-1.8 2.5-3.4 4.4-2.9 0.8 0.2 2.4-1.9 2.9-2.1 0.8-0.3 0.4 0.8 0.4 1.5 1.9-1.5 4.5-2.3 6.9-3.2" fill="url(#aea0a9f3-2888-41d0-8935-0a07ed6db7ab)" fill-rule="nonzero" stroke="none" stroke-width="1" stroke-linecap="butt" stroke-linejoin="miter" stroke-miterlimit="10" stroke-dasharray="" stroke-dashoffset="0" font-family="none" font-weight="none" font-size="none" text-anchor="none" style="mix-blend-mode: normal" data-fill-palette-color="tertiary"></path></g><g transform="matrix(1,0,0,1,64,119.12811303435538)"><svg viewBox="0 0 192 121.74377393128924" height="121.74377393128924" width="192"><g><svg viewBox="0 0 192 121.74377393128924" height="121.74377393128924" width="192"><g><svg viewBox="0 0 192 121.74377393128924" height="121.74377393128924" width="192"><g transform="matrix(1,0,0,1,0,73.58418767343923)"><svg viewBox="0 0 192 48.159586257850016" height="48.159586257850016" width="192"><g id="textblocktransform"><svg viewBox="0 0 192 48.159586257850016" height="48.159586257850016" width="192" id="textblock"><g><svg viewBox="0 0 192 48.159586257850016" height="48.159586257850016" width="192"><g transform="matrix(1,0,0,1,0,0)"><svg width="192" viewBox="3.6 -33.7 135.34 33.95" height="48.159586257850016" data-palette-color="url(#27a4e770-a96f-4fff-8525-cd1bc960728f)"></svg></g></svg></g></svg></g></svg></g><g transform="matrix(1,0,0,1,69.58873577948364,0)"><svg viewBox="0 0 52.822528441032716 66.55654820834873" height="66.55654820834873" width="52.822528441032716"><g><svg xmlns="http://www.w3.org/2000/svg" xmlns:xlink="http://www.w3.org/1999/xlink" version="1.1" x="0" y="0" viewBox="30.450000000000003 43.923 39.038 49.188" enable-background="new 0 0 100 100" xml:space="preserve" height="66.55654820834873" width="52.822528441032716" class="icon-icon-0" data-fill-palette-color="accent" id="icon-0"></svg></g></svg></g><g></g></svg></g></svg></g></svg></g></svg></g><defs></defs><mask id="11fc4280-fcdd-431a-987f-076993403c47"><g id="SvgjsG2625"><svg viewBox="0 0 320 360" height="360" width="320"><g><svg></svg></g><g><svg viewBox="0 0 320 360" height="360" width="320"><g><path transform="translate(-74.99272,-51.79039) scale(4.65793,4.65793)" d="M20.6 59.9l0.8 1-0.4-1.3c-0.1-0.6-0.8 0.1-0.4 0.3M21.5 59.3c0.3 0.5 0.6 1 0.6 1.5 0 0.7 0.6 1 1.1 1.2-0.7-0.8-1.1-3-1.7-2.7M59.9 16.9c1.7 0 3.3-0.2 5.1 0.2 4.4 1.1 8.1 3.3 10.6 6.4l7 11.2c0.3 2.8 0.9 5.9 0.8 9.3 0.7 0 0.6-1 1.4-1.2-0.8 2-1.2 4.5-1.4 7.4-0.5-1.6 0-4 0.1-5.3-0.7 1.1-1.1 0.3-1.1-0.2 0.1-0.8-0.3-0.7-0.6-1-1.1-1-1.8-2.1-2.6-3.8 0.5-1.3 0.6-3.2-1-4.2-0.5-0.3-1.1-0.8-1.4-1.6-0.4-1.1-1.1-2.4-0.9-4.1 0.1-0.5-1.5 1.1-2.4 0.4-3.9-2.7-7.8-5.8-12.5-8.4-2.5 0-4.3-0.9-5.2-2-0.8-1-0.2-2.3 1-2.4 0.7 0 1.5-0.2 2.1 0.2 0.1-0.4 0.5-0.9 1-0.9M50 14.6l0.2 0.1c1 0.2 1.5 1.6 2.6 1.1 0 0.7 0.1 1.4-0.1 1.9-0.3 0.8-1.2 0.8-1.9 0.8-6.7-0.4-10.6 2.4-14.7 4.8-1.1 0.7-2.3 1.2-3.2 2.1-4.3 4-9 7.7-10.1 15.1l-0.9 8.2c-0.1 0.9-1.1 1.8-0.9 2.9l0.7 4.9c-0.7-0.7-1.1 0.2-0.9 0.6 0.1 0.3 0.5 1.3 1.1 0.4 0.8 1.5 1.6 4.4 2.7 5.7 3.4 4 7.8 7.6 11.4 11.2 0.9-0.2 1.6-0.2 1.8-0.8 0.3 0.6-0.3 1.2-0.8 1.3 1.6 1 3.4 1.9 5.8 2.1 3.1 0.2 6 0.7 8.7 1.4 1.4-0.4 2.8-0.6 4.3-0.7 0.5 0 0.8-0.8 1.4-1l0.1-1c0.6 0.9 0.5-0.3 0.1-0.9 0.7 0.6 0.9 1.1 1.2 1.5 0-0.3 0.8-1.4 0.8-0.1l0.2-1.3c0.3-0.2 0.4 1.1 0.7 0.2 0.3-0.9 0.9-0.2 1.5-0.5-0.2 0.4-0.1 1.2 0.6 0.7l0.8-0.7c0.5 1.2 1.3 0.7 1.7 0.5 4.4-2.8 8.8-6.1 13-9.4l-0.1 1.3 0.5-1.6c0.5 0.5 0.9 0.1 1.1-0.2 0.6-1 1.4-2 2.7-2.9-1.6 4.3-3.5 7.7-5.9 10.5l-1 1.2c0 0.7-0.2 1.6-1 1.7-0.4 0.1-1.2-0.2-1.8 0.4-0.3 0.4 0.7 1.2-0.1 0.6-0.7-0.5-1.4 0-2.2 0.2-0.6 0.2 0.4 0.8 0.6 1.2 0.2 0.4 0.4 0.8 0.3 1.3l-1.1-1.2c-1.3 0.7-2.1 2-3.2 3-0.5 0.4-0.3 1.1-0.3 1.7-0.7 0-1.5-0.2-1.9 0.2-0.3 0.4-0.2 1-0.2 1.6-1-0.1-1.1-1.6-2-1.3-0.9 0.2-1.9 0.3-2.7 0.8 0.6 1.2-1 0.5-0.8 0.7-1.5-0.9-2.8-1.6-4.4-1-3.4-1.1-7.6-0.6-10.7-0.2 0-0.5 0.1-1-0.1-1.1-0.2 0.5-0.8 0.3-0.7 0.3-1.9-1.3-3.8-2.1-5.8-3.2-1.8 0.2-3.5-0.7-4-1.2-1.4-1.3-3-0.6-4.3-0.9-2.8-0.7-3.8-3.6-4.1-5.6-0.2-1-1-1.4-1.3-1.3-1.3-4.2-3.3-8-4.9-11.9-0.4-1-0.3-2-0.3-3.1 0.5 0.2 1 0.1 0.9-0.6-0.5-3.3-1.7-5.8-3-8.2 0.7-3.4 0.8-7.4 2.4-10.4 1.4-2.7 4-4.1 5.8-6.4 0.6-0.8 0.6-1.9 1.2-2.6 2-2 4-4.1 6.2-5.9 1-0.8 2.2 0 3.7-0.3 0.5-1.8 2.5-3.4 4.4-2.9 0.8 0.2 2.4-1.9 2.9-2.1 0.8-0.3 0.4 0.8 0.4 1.5 1.9-1.5 4.5-2.3 6.9-3.2" fill="black" fill-rule="nonzero" stroke="none" stroke-width="1" stroke-linecap="butt" stroke-linejoin="miter" stroke-miterlimit="10" stroke-dasharray="" stroke-dashoffset="0" font-family="none" font-weight="none" font-size="none" text-anchor="none" style="mix-blend-mode: normal"></path></g><g transform="matrix(1,0,0,1,64,119.12811303435538)"><svg viewBox="0 0 192 121.74377393128924" height="121.74377393128924" width="192"><g><svg viewBox="0 0 192 121.74377393128924" height="121.74377393128924" width="192"><g><svg viewBox="0 0 192 121.74377393128924" height="121.74377393128924" width="192"><g transform="matrix(1,0,0,1,0,73.58418767343923)"><svg viewBox="0 0 192 48.159586257850016" height="48.159586257850016" width="192"><g id="SvgjsG2624"><svg viewBox="0 0 192 48.159586257850016" height="48.159586257850016" width="192" id="SvgjsSvg2623"><g><svg viewBox="0 0 192 48.159586257850016" height="48.159586257850016" width="192"><g transform="matrix(1,0,0,1,0,0)"><svg width="192" viewBox="3.6 -33.7 135.34 33.95" height="48.159586257850016" data-palette-color="url(#27a4e770-a96f-4fff-8525-cd1bc960728f)"><path d="M9.25-1.8Q9.1-1.05 8.38-0.53 7.65 0 6.35 0L6.35 0Q5.25 0 4.63-0.6 4-1.2 3.95-1.85L3.95-1.85Q4.25-3.95 4.25-8.15L4.25-8.15Q4.25-10.65 3.95-15.85L3.95-15.85Q3.6-20.75 3.6-24.55L3.6-24.55Q3.6-26.6 3.8-28.75L3.8-28.75Q3.8-29.45 4.63-30.25 5.45-31.05 6.9-31.25L6.9-31.25Q11.65-31.75 18.55-31.75L18.55-31.75 20.15-31.75Q21.95-31.75 23.68-31.1 25.4-30.45 25.4-28.85L25.4-28.85Q25.4-27.8 24.9-27.2 24.4-26.6 23.05-26.6L23.05-26.6Q22.4-26.6 21.55-26.7 20.7-26.8 20.35-26.85L20.35-26.85Q18.45-27.15 17.4-27.15L17.4-27.15Q11.6-27.15 8.65-26.35L8.65-26.35Q8.65-24.7 8.75-21L8.75-21 8.8-17.8Q11.4-17.8 13.45-18.03 15.5-18.25 15.8-18.3L15.8-18.3Q18.4-18.6 19.25-18.6L19.25-18.6Q20.45-18.6 21.28-18.07 22.1-17.55 22.1-16.45L22.1-16.45Q22.1-13.95 18.6-13.95L18.6-13.95Q17.75-13.95 17.1-13.9 16.45-13.85 16-13.8L16-13.8Q14.2-13.6 13.15-13.6L13.15-13.6Q10.85-13.6 9.25-13.45L9.25-13.45Q9.25-11.6 9.4-9.55L9.4-9.55Q9.4-8.9 9.47-7.55 9.55-6.2 9.55-5.1L9.55-5.1Q9.55-4.15 9.5-3.35 9.45-2.55 9.25-1.8L9.25-1.8ZM48.1-16.05Q48.5-15.35 48.75-14.03 49-12.7 49-11.65L49-11.65Q49-9.7 48.15-6.1L48.15-6.1Q44.7 0.2 37.95 0.2L37.95 0.2Q35.45 0.2 32.85-1.45 30.25-3.1 29.25-5.25L29.25-5.25Q27.9-9.55 27.9-10.7L27.9-10.7Q27.9-12.7 28.77-14.95 29.65-17.2 31-18.85L31-18.85Q31.85-20 34.05-20.83 36.25-21.65 38.05-21.65L38.05-21.65Q41.55-21.65 44-20.33 46.45-19 48.1-16.05L48.1-16.05ZM43.75-8Q44-8.65 44-11.35L44-11.35Q44-12.8 43.47-14.2 42.95-15.6 41.95-16.6L41.95-16.6Q41.85-16.7 41.4-16.93 40.95-17.15 40.17-17.38 39.4-17.6 38.4-17.6L38.4-17.6Q35.6-17.6 34.3-15.35 33-13.1 33-10.25L33-10.25Q33-9.75 33.27-8.35 33.55-6.95 33.75-6.6L33.75-6.6Q33.9-6.25 34.52-5.63 35.15-5 36.07-4.53 37-4.05 38-4.05L38-4.05Q40.25-4.05 41.6-5.13 42.95-6.2 43.75-8L43.75-8ZM73.7-16.05Q74.09-15.35 74.34-14.03 74.59-12.7 74.59-11.65L74.59-11.65Q74.59-9.7 73.75-6.1L73.75-6.1Q70.3 0.2 63.55 0.2L63.55 0.2Q61.05 0.2 58.45-1.45 55.85-3.1 54.85-5.25L54.85-5.25Q53.5-9.55 53.5-10.7L53.5-10.7Q53.5-12.7 54.37-14.95 55.25-17.2 56.6-18.85L56.6-18.85Q57.45-20 59.65-20.83 61.85-21.65 63.65-21.65L63.65-21.65Q67.15-21.65 69.59-20.33 72.05-19 73.7-16.05L73.7-16.05ZM69.34-8Q69.59-8.65 69.59-11.35L69.59-11.35Q69.59-12.8 69.07-14.2 68.55-15.6 67.55-16.6L67.55-16.6Q67.45-16.7 67-16.93 66.55-17.15 65.77-17.38 65-17.6 64-17.6L64-17.6Q61.2-17.6 59.9-15.35 58.6-13.1 58.6-10.25L58.6-10.25Q58.6-9.75 58.87-8.35 59.15-6.95 59.35-6.6L59.35-6.6Q59.5-6.25 60.12-5.63 60.75-5 61.67-4.53 62.6-4.05 63.6-4.05L63.6-4.05Q65.84-4.05 67.2-5.13 68.55-6.2 69.34-8L69.34-8ZM99.44-31.3Q99.44-30.8 99.19-28.55L99.19-28.55Q98.64-23.05 98.64-17.4L98.64-17.4Q98.64-12.45 98.79-9.85 98.94-7.25 99.54-5.88 100.14-4.5 101.39-4.5L101.39-4.5Q103.79-4.5 103.79-2.9L103.79-2.9Q103.79-1.85 102.74-1.13 101.69-0.4 100.44-0.4L100.44-0.4Q98.94-0.4 97.64-1.1 96.34-1.8 95.59-3.25L95.59-3.25Q94.54-1.7 92.57-0.78 90.59 0.15 88.74 0.15L88.74 0.15Q85.89 0.15 83.69-1.05 81.49-2.25 80.29-4.33 79.09-6.4 79.09-8.9L79.09-8.9Q79.09-11.3 79.67-13.53 80.24-15.75 81.24-17.2L81.24-17.2Q82.59-19.1 84.87-20.23 87.14-21.35 89.34-21.35L89.34-21.35Q90.69-21.35 91.89-20.83 93.09-20.3 93.99-19.55L93.99-19.55Q93.99-22.9 93.94-23.75L93.94-23.75 93.94-24.8Q93.94-29.45 94.54-31.6L94.54-31.6Q95.09-33.7 97.19-33.7L97.19-33.7Q98.34-33.7 98.89-33.2 99.44-32.7 99.44-31.3L99.44-31.3ZM84.04-9Q84.04-6.7 85.37-5.3 86.69-3.9 88.54-3.9L88.54-3.9Q91.19-3.9 92.47-5.55 93.74-7.2 93.74-9.8L93.74-9.8 93.69-14.75Q91.74-16.9 89.64-16.9L89.64-16.9Q88.19-16.9 86.92-16.18 85.64-15.45 84.89-14L84.89-14Q84.04-12.35 84.04-9L84.04-9ZM109.64-32.1Q111.39-31.95 112.69-31.18 113.99-30.4 113.99-28.85L113.99-28.85Q113.99-27.7 112.91-27.03 111.84-26.35 110.34-26.35L110.34-26.35Q108.89-26.35 108.34-27.1 107.79-27.85 107.79-28.65L107.79-28.65Q107.79-30.15 108.11-31.15 108.44-32.15 109.64-32.1L109.64-32.1ZM113.64-18.95L113.64-9.95 113.64-8.5Q113.64-6.55 113.77-4.83 113.89-3.1 114.09-1.35L114.09-1.35Q114.04-0.85 113.34-0.33 112.64 0.2 112.09 0.2L112.09 0.2Q111.14 0.2 110.16-0.18 109.19-0.55 108.99-1.1L108.99-1.1Q108.69-2.7 108.69-3.95L108.69-3.95Q108.69-8.05 108.44-13.15L108.44-13.15Q108.24-17.65 108.24-19.45L108.24-19.45Q108.24-20.35 109.14-21 110.04-21.65 111.04-21.65L111.04-21.65Q112.49-21.65 113.06-21 113.64-20.35 113.64-18.95L113.64-18.95ZM119.49-10.6Q119.49-12.5 120.19-14.43 120.89-16.35 122.04-17.95L122.04-17.95Q123.19-19.55 125.69-20.58 128.19-21.6 130.14-21.6L130.14-21.6Q132.14-21.6 134.21-21.05 136.29-20.5 137.09-19.35L137.09-19.35Q138.94-16.75 138.94-14.25L138.94-14.25Q138.94-12.9 138.36-11.95 137.79-11 136.74-9.9L136.74-9.9Q135.89-9 134.06-8.7 132.24-8.4 130.44-8.4L130.44-8.4Q129.29-8.4 127.64-8.63 125.99-8.85 124.44-9.2L124.44-9.2Q124.54-8.2 124.94-7.25 125.34-6.3 125.89-5.8L125.89-5.8Q126.89-4.85 127.96-4.6 129.04-4.35 130.74-4.35L130.74-4.35Q132.54-4.35 134.09-4.95L134.09-4.95Q135.34-5.4 136.14-5.4L136.14-5.4Q137.09-5.4 137.59-4.83 138.09-4.25 138.09-3.35L138.09-3.35Q138.09-2.1 136.64-1.3 135.19-0.5 133.31-0.13 131.44 0.25 130.29 0.25L130.29 0.25Q127.94 0.25 125.74-0.6 123.54-1.45 122.09-3L122.09-3Q120.89-4.4 120.19-6.38 119.49-8.35 119.49-10.6L119.49-10.6ZM130.39-17.35Q129.29-17.35 128.19-16.93 127.09-16.5 126.39-15.75L126.39-15.75Q125.49-14.8 125.16-14.23 124.84-13.65 124.74-12.65L124.74-12.65Q125.99-12.25 129.94-12.25L129.94-12.25Q132.09-12.25 133.26-12.9 134.44-13.55 134.44-14.6L134.44-14.6Q134.44-15.65 133.14-16.5 131.84-17.35 130.39-17.35L130.39-17.35Z" opacity="1" transform="matrix(1,0,0,1,0,0)" fill="white" class="wordmark-text-0" id="SvgjsPath2622"></path></svg></g></svg></g></svg></g></svg></g><g transform="matrix(1,0,0,1,69.58873577948364,0)"><svg viewBox="0 0 52.822528441032716 66.55654820834873" height="66.55654820834873" width="52.822528441032716"><g><svg xmlns="http://www.w3.org/2000/svg" xmlns:xlink="http://www.w3.org/1999/xlink" version="1.1" x="0" y="0" viewBox="30.450000000000003 43.923 39.038 49.188" enable-background="new 0 0 100 100" xml:space="preserve" height="66.55654820834873" width="52.822528441032716" class="icon-icon-0" data-fill-palette-color="accent" id="SvgjsSvg2621"><g fill="black"><path fill="black" d="M38.836 76.902c-3.083 0-5.654-2.312-6.029-5.338-0.062-0.158-0.097-0.328-0.097-0.507V45.393c0-0.812 0.658-1.47 1.47-1.47h9.281c0.812 0 1.47 0.658 1.47 1.47v25.665c0 0.135-0.019 0.266-0.052 0.39C44.557 74.53 41.96 76.902 38.836 76.902zM35.65 70.663c0.03 0.101 0.048 0.206 0.054 0.315 0.091 1.673 1.466 2.984 3.132 2.984s3.041-1.312 3.132-2.984c0.003-0.066 0.011-0.131 0.023-0.193V46.862H35.65V70.663z"></path></g><g fill="black"><path fill="black" d="M38.753 92.444c-0.812 0-1.47-0.658-1.47-1.47V76.309c0-0.812 0.658-1.47 1.47-1.47s1.47 0.658 1.47 1.47v14.666C40.224 91.786 39.565 92.444 38.753 92.444z"></path></g><g fill="black"><path fill="black" d="M45.586 93.111H31.92c-0.812 0-1.47-0.658-1.47-1.47s0.658-1.47 1.47-1.47h13.666c0.812 0 1.47 0.658 1.47 1.47S46.398 93.111 45.586 93.111z"></path></g><g fill="black"><path fill="black" d="M59.104 92.444c-0.812 0-1.47-0.658-1.47-1.47V76.309c0-0.812 0.658-1.47 1.47-1.47s1.47 0.658 1.47 1.47v14.666C60.574 91.786 59.916 92.444 59.104 92.444z"></path></g><g fill="black"><path fill="black" d="M65.937 93.111H52.271c-0.812 0-1.47-0.658-1.47-1.47s0.658-1.47 1.47-1.47h13.666c0.812 0 1.47 0.658 1.47 1.47S66.749 93.111 65.937 93.111z"></path></g><g fill="black"><path fill="black" d="M42.253 54.279h-7.334c-0.812 0-1.47-0.658-1.47-1.47s0.658-1.47 1.47-1.47h7.334c0.812 0 1.47 0.658 1.47 1.47S43.065 54.279 42.253 54.279z"></path></g><g fill="black"><path fill="black" d="M62.054 77.579h-5.578c-4.099 0-7.433-3.334-7.433-7.433 0-0.121 0.015-0.242 0.045-0.359l2.834-11.244c0.165-0.653 0.752-1.11 1.425-1.11h11.836c0.673 0 1.261 0.457 1.425 1.11l2.835 11.244c0.03 0.117 0.045 0.238 0.045 0.359C69.488 74.245 66.153 77.579 62.054 77.579zM51.986 70.316c0.089 2.399 2.069 4.323 4.49 4.323h5.578c2.421 0 4.401-1.924 4.491-4.323l-2.507-9.944h-9.545L51.986 70.316z"></path></g><g fill="black"><path fill="black" d="M67.253 70.526H51.586c-0.812 0-1.47-0.658-1.47-1.47s0.658-1.47 1.47-1.47h15.667c0.812 0 1.47 0.658 1.47 1.47S68.065 70.526 67.253 70.526z"></path></g></svg></g></svg></g><g></g></svg></g></svg></g></svg></g></svg></g><defs><mask></mask></defs></svg><rect width="320" height="360" fill="black" stroke="none" visibility="hidden"></rect></g></mask><linearGradient x1="0" x2="1" y1="0.5" y2="0.5" id="27a4e770-a96f-4fff-8525-cd1bc960728f"><stop stop-color="#ffa62e" offset="0"></stop><stop stop-color="#f71b3d" offset="1"></stop></linearGradient><rect width="320.000047" height="360" fill="url(#27a4e770-a96f-4fff-8525-cd1bc960728f)" mask="url(#11fc4280-fcdd-431a-987f-076993403c47)" data-fill-palette-color="primary"></rect><mask id="903fbf1d-355c-4233-9986-d28765dddb2b"><g id="SvgjsG2634"><svg viewBox="0 0 320 360" height="360" width="320"><g><svg></svg></g><g><svg viewBox="0 0 320 360" height="360" width="320"><g><path transform="translate(-74.99272,-51.79039) scale(4.65793,4.65793)" d="M20.6 59.9l0.8 1-0.4-1.3c-0.1-0.6-0.8 0.1-0.4 0.3M21.5 59.3c0.3 0.5 0.6 1 0.6 1.5 0 0.7 0.6 1 1.1 1.2-0.7-0.8-1.1-3-1.7-2.7M59.9 16.9c1.7 0 3.3-0.2 5.1 0.2 4.4 1.1 8.1 3.3 10.6 6.4l7 11.2c0.3 2.8 0.9 5.9 0.8 9.3 0.7 0 0.6-1 1.4-1.2-0.8 2-1.2 4.5-1.4 7.4-0.5-1.6 0-4 0.1-5.3-0.7 1.1-1.1 0.3-1.1-0.2 0.1-0.8-0.3-0.7-0.6-1-1.1-1-1.8-2.1-2.6-3.8 0.5-1.3 0.6-3.2-1-4.2-0.5-0.3-1.1-0.8-1.4-1.6-0.4-1.1-1.1-2.4-0.9-4.1 0.1-0.5-1.5 1.1-2.4 0.4-3.9-2.7-7.8-5.8-12.5-8.4-2.5 0-4.3-0.9-5.2-2-0.8-1-0.2-2.3 1-2.4 0.7 0 1.5-0.2 2.1 0.2 0.1-0.4 0.5-0.9 1-0.9M50 14.6l0.2 0.1c1 0.2 1.5 1.6 2.6 1.1 0 0.7 0.1 1.4-0.1 1.9-0.3 0.8-1.2 0.8-1.9 0.8-6.7-0.4-10.6 2.4-14.7 4.8-1.1 0.7-2.3 1.2-3.2 2.1-4.3 4-9 7.7-10.1 15.1l-0.9 8.2c-0.1 0.9-1.1 1.8-0.9 2.9l0.7 4.9c-0.7-0.7-1.1 0.2-0.9 0.6 0.1 0.3 0.5 1.3 1.1 0.4 0.8 1.5 1.6 4.4 2.7 5.7 3.4 4 7.8 7.6 11.4 11.2 0.9-0.2 1.6-0.2 1.8-0.8 0.3 0.6-0.3 1.2-0.8 1.3 1.6 1 3.4 1.9 5.8 2.1 3.1 0.2 6 0.7 8.7 1.4 1.4-0.4 2.8-0.6 4.3-0.7 0.5 0 0.8-0.8 1.4-1l0.1-1c0.6 0.9 0.5-0.3 0.1-0.9 0.7 0.6 0.9 1.1 1.2 1.5 0-0.3 0.8-1.4 0.8-0.1l0.2-1.3c0.3-0.2 0.4 1.1 0.7 0.2 0.3-0.9 0.9-0.2 1.5-0.5-0.2 0.4-0.1 1.2 0.6 0.7l0.8-0.7c0.5 1.2 1.3 0.7 1.7 0.5 4.4-2.8 8.8-6.1 13-9.4l-0.1 1.3 0.5-1.6c0.5 0.5 0.9 0.1 1.1-0.2 0.6-1 1.4-2 2.7-2.9-1.6 4.3-3.5 7.7-5.9 10.5l-1 1.2c0 0.7-0.2 1.6-1 1.7-0.4 0.1-1.2-0.2-1.8 0.4-0.3 0.4 0.7 1.2-0.1 0.6-0.7-0.5-1.4 0-2.2 0.2-0.6 0.2 0.4 0.8 0.6 1.2 0.2 0.4 0.4 0.8 0.3 1.3l-1.1-1.2c-1.3 0.7-2.1 2-3.2 3-0.5 0.4-0.3 1.1-0.3 1.7-0.7 0-1.5-0.2-1.9 0.2-0.3 0.4-0.2 1-0.2 1.6-1-0.1-1.1-1.6-2-1.3-0.9 0.2-1.9 0.3-2.7 0.8 0.6 1.2-1 0.5-0.8 0.7-1.5-0.9-2.8-1.6-4.4-1-3.4-1.1-7.6-0.6-10.7-0.2 0-0.5 0.1-1-0.1-1.1-0.2 0.5-0.8 0.3-0.7 0.3-1.9-1.3-3.8-2.1-5.8-3.2-1.8 0.2-3.5-0.7-4-1.2-1.4-1.3-3-0.6-4.3-0.9-2.8-0.7-3.8-3.6-4.1-5.6-0.2-1-1-1.4-1.3-1.3-1.3-4.2-3.3-8-4.9-11.9-0.4-1-0.3-2-0.3-3.1 0.5 0.2 1 0.1 0.9-0.6-0.5-3.3-1.7-5.8-3-8.2 0.7-3.4 0.8-7.4 2.4-10.4 1.4-2.7 4-4.1 5.8-6.4 0.6-0.8 0.6-1.9 1.2-2.6 2-2 4-4.1 6.2-5.9 1-0.8 2.2 0 3.7-0.3 0.5-1.8 2.5-3.4 4.4-2.9 0.8 0.2 2.4-1.9 2.9-2.1 0.8-0.3 0.4 0.8 0.4 1.5 1.9-1.5 4.5-2.3 6.9-3.2" fill="black" fill-rule="nonzero" stroke="none" stroke-width="1" stroke-linecap="butt" stroke-linejoin="miter" stroke-miterlimit="10" stroke-dasharray="" stroke-dashoffset="0" font-family="none" font-weight="none" font-size="none" text-anchor="none" style="mix-blend-mode: normal"></path></g><g transform="matrix(1,0,0,1,64,119.12811303435538)"><svg viewBox="0 0 192 121.74377393128924" height="121.74377393128924" width="192"><g><svg viewBox="0 0 192 121.74377393128924" height="121.74377393128924" width="192"><g><svg viewBox="0 0 192 121.74377393128924" height="121.74377393128924" width="192"><g transform="matrix(1,0,0,1,0,73.58418767343923)"><svg viewBox="0 0 192 48.159586257850016" height="48.159586257850016" width="192"><g id="SvgjsG2633"><svg viewBox="0 0 192 48.159586257850016" height="48.159586257850016" width="192" id="SvgjsSvg2632"><g><svg viewBox="0 0 192 48.159586257850016" height="48.159586257850016" width="192"><g transform="matrix(1,0,0,1,0,0)"><svg width="192" viewBox="3.6 -33.7 135.34 33.95" height="48.159586257850016" data-palette-color="url(#27a4e770-a96f-4fff-8525-cd1bc960728f)"></svg></g></svg></g></svg></g></svg></g><g transform="matrix(1,0,0,1,69.58873577948364,0)"><svg viewBox="0 0 52.822528441032716 66.55654820834873" height="66.55654820834873" width="52.822528441032716"><g><svg xmlns="http://www.w3.org/2000/svg" xmlns:xlink="http://www.w3.org/1999/xlink" version="1.1" x="0" y="0" viewBox="30.450000000000003 43.923 39.038 49.188" enable-background="new 0 0 100 100" xml:space="preserve" height="66.55654820834873" width="52.822528441032716" class="icon-icon-0" data-fill-palette-color="accent" id="SvgjsSvg2631"><g fill="white"><path fill="white" d="M38.836 76.902c-3.083 0-5.654-2.312-6.029-5.338-0.062-0.158-0.097-0.328-0.097-0.507V45.393c0-0.812 0.658-1.47 1.47-1.47h9.281c0.812 0 1.47 0.658 1.47 1.47v25.665c0 0.135-0.019 0.266-0.052 0.39C44.557 74.53 41.96 76.902 38.836 76.902zM35.65 70.663c0.03 0.101 0.048 0.206 0.054 0.315 0.091 1.673 1.466 2.984 3.132 2.984s3.041-1.312 3.132-2.984c0.003-0.066 0.011-0.131 0.023-0.193V46.862H35.65V70.663z"></path></g><g fill="white"><path fill="white" d="M38.753 92.444c-0.812 0-1.47-0.658-1.47-1.47V76.309c0-0.812 0.658-1.47 1.47-1.47s1.47 0.658 1.47 1.47v14.666C40.224 91.786 39.565 92.444 38.753 92.444z"></path></g><g fill="white"><path fill="white" d="M45.586 93.111H31.92c-0.812 0-1.47-0.658-1.47-1.47s0.658-1.47 1.47-1.47h13.666c0.812 0 1.47 0.658 1.47 1.47S46.398 93.111 45.586 93.111z"></path></g><g fill="white"><path fill="white" d="M59.104 92.444c-0.812 0-1.47-0.658-1.47-1.47V76.309c0-0.812 0.658-1.47 1.47-1.47s1.47 0.658 1.47 1.47v14.666C60.574 91.786 59.916 92.444 59.104 92.444z"></path></g><g fill="white"><path fill="white" d="M65.937 93.111H52.271c-0.812 0-1.47-0.658-1.47-1.47s0.658-1.47 1.47-1.47h13.666c0.812 0 1.47 0.658 1.47 1.47S66.749 93.111 65.937 93.111z"></path></g><g fill="white"><path fill="white" d="M42.253 54.279h-7.334c-0.812 0-1.47-0.658-1.47-1.47s0.658-1.47 1.47-1.47h7.334c0.812 0 1.47 0.658 1.47 1.47S43.065 54.279 42.253 54.279z"></path></g><g fill="white"><path fill="white" d="M62.054 77.579h-5.578c-4.099 0-7.433-3.334-7.433-7.433 0-0.121 0.015-0.242 0.045-0.359l2.834-11.244c0.165-0.653 0.752-1.11 1.425-1.11h11.836c0.673 0 1.261 0.457 1.425 1.11l2.835 11.244c0.03 0.117 0.045 0.238 0.045 0.359C69.488 74.245 66.153 77.579 62.054 77.579zM51.986 70.316c0.089 2.399 2.069 4.323 4.49 4.323h5.578c2.421 0 4.401-1.924 4.491-4.323l-2.507-9.944h-9.545L51.986 70.316z"></path></g><g fill="white"><path fill="white" d="M67.253 70.526H51.586c-0.812 0-1.47-0.658-1.47-1.47s0.658-1.47 1.47-1.47h15.667c0.812 0 1.47 0.658 1.47 1.47S68.065 70.526 67.253 70.526z"></path></g></svg></g></svg></g><g></g></svg></g></svg></g></svg></g></svg></g><defs><mask></mask></defs><mask><g id="SvgjsG2630"><svg viewBox="0 0 320 360" height="360" width="320"><g><svg></svg></g><g><svg viewBox="0 0 320 360" height="360" width="320"><g><path transform="translate(-74.99272,-51.79039) scale(4.65793,4.65793)" d="M20.6 59.9l0.8 1-0.4-1.3c-0.1-0.6-0.8 0.1-0.4 0.3M21.5 59.3c0.3 0.5 0.6 1 0.6 1.5 0 0.7 0.6 1 1.1 1.2-0.7-0.8-1.1-3-1.7-2.7M59.9 16.9c1.7 0 3.3-0.2 5.1 0.2 4.4 1.1 8.1 3.3 10.6 6.4l7 11.2c0.3 2.8 0.9 5.9 0.8 9.3 0.7 0 0.6-1 1.4-1.2-0.8 2-1.2 4.5-1.4 7.4-0.5-1.6 0-4 0.1-5.3-0.7 1.1-1.1 0.3-1.1-0.2 0.1-0.8-0.3-0.7-0.6-1-1.1-1-1.8-2.1-2.6-3.8 0.5-1.3 0.6-3.2-1-4.2-0.5-0.3-1.1-0.8-1.4-1.6-0.4-1.1-1.1-2.4-0.9-4.1 0.1-0.5-1.5 1.1-2.4 0.4-3.9-2.7-7.8-5.8-12.5-8.4-2.5 0-4.3-0.9-5.2-2-0.8-1-0.2-2.3 1-2.4 0.7 0 1.5-0.2 2.1 0.2 0.1-0.4 0.5-0.9 1-0.9M50 14.6l0.2 0.1c1 0.2 1.5 1.6 2.6 1.1 0 0.7 0.1 1.4-0.1 1.9-0.3 0.8-1.2 0.8-1.9 0.8-6.7-0.4-10.6 2.4-14.7 4.8-1.1 0.7-2.3 1.2-3.2 2.1-4.3 4-9 7.7-10.1 15.1l-0.9 8.2c-0.1 0.9-1.1 1.8-0.9 2.9l0.7 4.9c-0.7-0.7-1.1 0.2-0.9 0.6 0.1 0.3 0.5 1.3 1.1 0.4 0.8 1.5 1.6 4.4 2.7 5.7 3.4 4 7.8 7.6 11.4 11.2 0.9-0.2 1.6-0.2 1.8-0.8 0.3 0.6-0.3 1.2-0.8 1.3 1.6 1 3.4 1.9 5.8 2.1 3.1 0.2 6 0.7 8.7 1.4 1.4-0.4 2.8-0.6 4.3-0.7 0.5 0 0.8-0.8 1.4-1l0.1-1c0.6 0.9 0.5-0.3 0.1-0.9 0.7 0.6 0.9 1.1 1.2 1.5 0-0.3 0.8-1.4 0.8-0.1l0.2-1.3c0.3-0.2 0.4 1.1 0.7 0.2 0.3-0.9 0.9-0.2 1.5-0.5-0.2 0.4-0.1 1.2 0.6 0.7l0.8-0.7c0.5 1.2 1.3 0.7 1.7 0.5 4.4-2.8 8.8-6.1 13-9.4l-0.1 1.3 0.5-1.6c0.5 0.5 0.9 0.1 1.1-0.2 0.6-1 1.4-2 2.7-2.9-1.6 4.3-3.5 7.7-5.9 10.5l-1 1.2c0 0.7-0.2 1.6-1 1.7-0.4 0.1-1.2-0.2-1.8 0.4-0.3 0.4 0.7 1.2-0.1 0.6-0.7-0.5-1.4 0-2.2 0.2-0.6 0.2 0.4 0.8 0.6 1.2 0.2 0.4 0.4 0.8 0.3 1.3l-1.1-1.2c-1.3 0.7-2.1 2-3.2 3-0.5 0.4-0.3 1.1-0.3 1.7-0.7 0-1.5-0.2-1.9 0.2-0.3 0.4-0.2 1-0.2 1.6-1-0.1-1.1-1.6-2-1.3-0.9 0.2-1.9 0.3-2.7 0.8 0.6 1.2-1 0.5-0.8 0.7-1.5-0.9-2.8-1.6-4.4-1-3.4-1.1-7.6-0.6-10.7-0.2 0-0.5 0.1-1-0.1-1.1-0.2 0.5-0.8 0.3-0.7 0.3-1.9-1.3-3.8-2.1-5.8-3.2-1.8 0.2-3.5-0.7-4-1.2-1.4-1.3-3-0.6-4.3-0.9-2.8-0.7-3.8-3.6-4.1-5.6-0.2-1-1-1.4-1.3-1.3-1.3-4.2-3.3-8-4.9-11.9-0.4-1-0.3-2-0.3-3.1 0.5 0.2 1 0.1 0.9-0.6-0.5-3.3-1.7-5.8-3-8.2 0.7-3.4 0.8-7.4 2.4-10.4 1.4-2.7 4-4.1 5.8-6.4 0.6-0.8 0.6-1.9 1.2-2.6 2-2 4-4.1 6.2-5.9 1-0.8 2.2 0 3.7-0.3 0.5-1.8 2.5-3.4 4.4-2.9 0.8 0.2 2.4-1.9 2.9-2.1 0.8-0.3 0.4 0.8 0.4 1.5 1.9-1.5 4.5-2.3 6.9-3.2" fill="black" fill-rule="nonzero" stroke="none" stroke-width="1" stroke-linecap="butt" stroke-linejoin="miter" stroke-miterlimit="10" stroke-dasharray="" stroke-dashoffset="0" font-family="none" font-weight="none" font-size="none" text-anchor="none" style="mix-blend-mode: normal"></path></g><g transform="matrix(1,0,0,1,64,119.12811303435538)"><svg viewBox="0 0 192 121.74377393128924" height="121.74377393128924" width="192"><g><svg viewBox="0 0 192 121.74377393128924" height="121.74377393128924" width="192"><g><svg viewBox="0 0 192 121.74377393128924" height="121.74377393128924" width="192"><g transform="matrix(1,0,0,1,0,73.58418767343923)"><svg viewBox="0 0 192 48.159586257850016" height="48.159586257850016" width="192"><g id="SvgjsG2629"><svg viewBox="0 0 192 48.159586257850016" height="48.159586257850016" width="192" id="SvgjsSvg2628"><g><svg viewBox="0 0 192 48.159586257850016" height="48.159586257850016" width="192"><g transform="matrix(1,0,0,1,0,0)"><svg width="192" viewBox="3.6 -33.7 135.34 33.95" height="48.159586257850016" data-palette-color="url(#27a4e770-a96f-4fff-8525-cd1bc960728f)"><path d="M9.25-1.8Q9.1-1.05 8.38-0.53 7.65 0 6.35 0L6.35 0Q5.25 0 4.63-0.6 4-1.2 3.95-1.85L3.95-1.85Q4.25-3.95 4.25-8.15L4.25-8.15Q4.25-10.65 3.95-15.85L3.95-15.85Q3.6-20.75 3.6-24.55L3.6-24.55Q3.6-26.6 3.8-28.75L3.8-28.75Q3.8-29.45 4.63-30.25 5.45-31.05 6.9-31.25L6.9-31.25Q11.65-31.75 18.55-31.75L18.55-31.75 20.15-31.75Q21.95-31.75 23.68-31.1 25.4-30.45 25.4-28.85L25.4-28.85Q25.4-27.8 24.9-27.2 24.4-26.6 23.05-26.6L23.05-26.6Q22.4-26.6 21.55-26.7 20.7-26.8 20.35-26.85L20.35-26.85Q18.45-27.15 17.4-27.15L17.4-27.15Q11.6-27.15 8.65-26.35L8.65-26.35Q8.65-24.7 8.75-21L8.75-21 8.8-17.8Q11.4-17.8 13.45-18.03 15.5-18.25 15.8-18.3L15.8-18.3Q18.4-18.6 19.25-18.6L19.25-18.6Q20.45-18.6 21.28-18.07 22.1-17.55 22.1-16.45L22.1-16.45Q22.1-13.95 18.6-13.95L18.6-13.95Q17.75-13.95 17.1-13.9 16.45-13.85 16-13.8L16-13.8Q14.2-13.6 13.15-13.6L13.15-13.6Q10.85-13.6 9.25-13.45L9.25-13.45Q9.25-11.6 9.4-9.55L9.4-9.55Q9.4-8.9 9.47-7.55 9.55-6.2 9.55-5.1L9.55-5.1Q9.55-4.15 9.5-3.35 9.45-2.55 9.25-1.8L9.25-1.8ZM48.1-16.05Q48.5-15.35 48.75-14.03 49-12.7 49-11.65L49-11.65Q49-9.7 48.15-6.1L48.15-6.1Q44.7 0.2 37.95 0.2L37.95 0.2Q35.45 0.2 32.85-1.45 30.25-3.1 29.25-5.25L29.25-5.25Q27.9-9.55 27.9-10.7L27.9-10.7Q27.9-12.7 28.77-14.95 29.65-17.2 31-18.85L31-18.85Q31.85-20 34.05-20.83 36.25-21.65 38.05-21.65L38.05-21.65Q41.55-21.65 44-20.33 46.45-19 48.1-16.05L48.1-16.05ZM43.75-8Q44-8.65 44-11.35L44-11.35Q44-12.8 43.47-14.2 42.95-15.6 41.95-16.6L41.95-16.6Q41.85-16.7 41.4-16.93 40.95-17.15 40.17-17.38 39.4-17.6 38.4-17.6L38.4-17.6Q35.6-17.6 34.3-15.35 33-13.1 33-10.25L33-10.25Q33-9.75 33.27-8.35 33.55-6.95 33.75-6.6L33.75-6.6Q33.9-6.25 34.52-5.63 35.15-5 36.07-4.53 37-4.05 38-4.05L38-4.05Q40.25-4.05 41.6-5.13 42.95-6.2 43.75-8L43.75-8ZM73.7-16.05Q74.09-15.35 74.34-14.03 74.59-12.7 74.59-11.65L74.59-11.65Q74.59-9.7 73.75-6.1L73.75-6.1Q70.3 0.2 63.55 0.2L63.55 0.2Q61.05 0.2 58.45-1.45 55.85-3.1 54.85-5.25L54.85-5.25Q53.5-9.55 53.5-10.7L53.5-10.7Q53.5-12.7 54.37-14.95 55.25-17.2 56.6-18.85L56.6-18.85Q57.45-20 59.65-20.83 61.85-21.65 63.65-21.65L63.65-21.65Q67.15-21.65 69.59-20.33 72.05-19 73.7-16.05L73.7-16.05ZM69.34-8Q69.59-8.65 69.59-11.35L69.59-11.35Q69.59-12.8 69.07-14.2 68.55-15.6 67.55-16.6L67.55-16.6Q67.45-16.7 67-16.93 66.55-17.15 65.77-17.38 65-17.6 64-17.6L64-17.6Q61.2-17.6 59.9-15.35 58.6-13.1 58.6-10.25L58.6-10.25Q58.6-9.75 58.87-8.35 59.15-6.95 59.35-6.6L59.35-6.6Q59.5-6.25 60.12-5.63 60.75-5 61.67-4.53 62.6-4.05 63.6-4.05L63.6-4.05Q65.84-4.05 67.2-5.13 68.55-6.2 69.34-8L69.34-8ZM99.44-31.3Q99.44-30.8 99.19-28.55L99.19-28.55Q98.64-23.05 98.64-17.4L98.64-17.4Q98.64-12.45 98.79-9.85 98.94-7.25 99.54-5.88 100.14-4.5 101.39-4.5L101.39-4.5Q103.79-4.5 103.79-2.9L103.79-2.9Q103.79-1.85 102.74-1.13 101.69-0.4 100.44-0.4L100.44-0.4Q98.94-0.4 97.64-1.1 96.34-1.8 95.59-3.25L95.59-3.25Q94.54-1.7 92.57-0.78 90.59 0.15 88.74 0.15L88.74 0.15Q85.89 0.15 83.69-1.05 81.49-2.25 80.29-4.33 79.09-6.4 79.09-8.9L79.09-8.9Q79.09-11.3 79.67-13.53 80.24-15.75 81.24-17.2L81.24-17.2Q82.59-19.1 84.87-20.23 87.14-21.35 89.34-21.35L89.34-21.35Q90.69-21.35 91.89-20.83 93.09-20.3 93.99-19.55L93.99-19.55Q93.99-22.9 93.94-23.75L93.94-23.75 93.94-24.8Q93.94-29.45 94.54-31.6L94.54-31.6Q95.09-33.7 97.19-33.7L97.19-33.7Q98.34-33.7 98.89-33.2 99.44-32.7 99.44-31.3L99.44-31.3ZM84.04-9Q84.04-6.7 85.37-5.3 86.69-3.9 88.54-3.9L88.54-3.9Q91.19-3.9 92.47-5.55 93.74-7.2 93.74-9.8L93.74-9.8 93.69-14.75Q91.74-16.9 89.64-16.9L89.64-16.9Q88.19-16.9 86.92-16.18 85.64-15.45 84.89-14L84.89-14Q84.04-12.35 84.04-9L84.04-9ZM109.64-32.1Q111.39-31.95 112.69-31.18 113.99-30.4 113.99-28.85L113.99-28.85Q113.99-27.7 112.91-27.03 111.84-26.35 110.34-26.35L110.34-26.35Q108.89-26.35 108.34-27.1 107.79-27.85 107.79-28.65L107.79-28.65Q107.79-30.15 108.11-31.15 108.44-32.15 109.64-32.1L109.64-32.1ZM113.64-18.95L113.64-9.95 113.64-8.5Q113.64-6.55 113.77-4.83 113.89-3.1 114.09-1.35L114.09-1.35Q114.04-0.85 113.34-0.33 112.64 0.2 112.09 0.2L112.09 0.2Q111.14 0.2 110.16-0.18 109.19-0.55 108.99-1.1L108.99-1.1Q108.69-2.7 108.69-3.95L108.69-3.95Q108.69-8.05 108.44-13.15L108.44-13.15Q108.24-17.65 108.24-19.45L108.24-19.45Q108.24-20.35 109.14-21 110.04-21.65 111.04-21.65L111.04-21.65Q112.49-21.65 113.06-21 113.64-20.35 113.64-18.95L113.64-18.95ZM119.49-10.6Q119.49-12.5 120.19-14.43 120.89-16.35 122.04-17.95L122.04-17.95Q123.19-19.55 125.69-20.58 128.19-21.6 130.14-21.6L130.14-21.6Q132.14-21.6 134.21-21.05 136.29-20.5 137.09-19.35L137.09-19.35Q138.94-16.75 138.94-14.25L138.94-14.25Q138.94-12.9 138.36-11.95 137.79-11 136.74-9.9L136.74-9.9Q135.89-9 134.06-8.7 132.24-8.4 130.44-8.4L130.44-8.4Q129.29-8.4 127.64-8.63 125.99-8.85 124.44-9.2L124.44-9.2Q124.54-8.2 124.94-7.25 125.34-6.3 125.89-5.8L125.89-5.8Q126.89-4.85 127.96-4.6 129.04-4.35 130.74-4.35L130.74-4.35Q132.54-4.35 134.09-4.95L134.09-4.95Q135.34-5.4 136.14-5.4L136.14-5.4Q137.09-5.4 137.59-4.83 138.09-4.25 138.09-3.35L138.09-3.35Q138.09-2.1 136.64-1.3 135.19-0.5 133.31-0.13 131.44 0.25 130.29 0.25L130.29 0.25Q127.94 0.25 125.74-0.6 123.54-1.45 122.09-3L122.09-3Q120.89-4.4 120.19-6.38 119.49-8.35 119.49-10.6L119.49-10.6ZM130.39-17.35Q129.29-17.35 128.19-16.93 127.09-16.5 126.39-15.75L126.39-15.75Q125.49-14.8 125.16-14.23 124.84-13.65 124.74-12.65L124.74-12.65Q125.99-12.25 129.94-12.25L129.94-12.25Q132.09-12.25 133.26-12.9 134.44-13.55 134.44-14.6L134.44-14.6Q134.44-15.65 133.14-16.5 131.84-17.35 130.39-17.35L130.39-17.35Z" opacity="1" transform="matrix(1,0,0,1,0,0)" fill="black" class="wordmark-text-0" id="SvgjsPath2627"></path></svg></g></svg></g></svg></g></svg></g><g transform="matrix(1,0,0,1,69.58873577948364,0)"><svg viewBox="0 0 52.822528441032716 66.55654820834873" height="66.55654820834873" width="52.822528441032716"><g><svg xmlns="http://www.w3.org/2000/svg" xmlns:xlink="http://www.w3.org/1999/xlink" version="1.1" x="0" y="0" viewBox="30.450000000000003 43.923 39.038 49.188" enable-background="new 0 0 100 100" xml:space="preserve" height="66.55654820834873" width="52.822528441032716" class="icon-icon-0" data-fill-palette-color="accent" id="SvgjsSvg2626"><g fill="black"><path fill="black" d="M38.836 76.902c-3.083 0-5.654-2.312-6.029-5.338-0.062-0.158-0.097-0.328-0.097-0.507V45.393c0-0.812 0.658-1.47 1.47-1.47h9.281c0.812 0 1.47 0.658 1.47 1.47v25.665c0 0.135-0.019 0.266-0.052 0.39C44.557 74.53 41.96 76.902 38.836 76.902zM35.65 70.663c0.03 0.101 0.048 0.206 0.054 0.315 0.091 1.673 1.466 2.984 3.132 2.984s3.041-1.312 3.132-2.984c0.003-0.066 0.011-0.131 0.023-0.193V46.862H35.65V70.663z"></path></g><g fill="black"><path fill="black" d="M38.753 92.444c-0.812 0-1.47-0.658-1.47-1.47V76.309c0-0.812 0.658-1.47 1.47-1.47s1.47 0.658 1.47 1.47v14.666C40.224 91.786 39.565 92.444 38.753 92.444z"></path></g><g fill="black"><path fill="black" d="M45.586 93.111H31.92c-0.812 0-1.47-0.658-1.47-1.47s0.658-1.47 1.47-1.47h13.666c0.812 0 1.47 0.658 1.47 1.47S46.398 93.111 45.586 93.111z"></path></g><g fill="black"><path fill="black" d="M59.104 92.444c-0.812 0-1.47-0.658-1.47-1.47V76.309c0-0.812 0.658-1.47 1.47-1.47s1.47 0.658 1.47 1.47v14.666C60.574 91.786 59.916 92.444 59.104 92.444z"></path></g><g fill="black"><path fill="black" d="M65.937 93.111H52.271c-0.812 0-1.47-0.658-1.47-1.47s0.658-1.47 1.47-1.47h13.666c0.812 0 1.47 0.658 1.47 1.47S66.749 93.111 65.937 93.111z"></path></g><g fill="black"><path fill="black" d="M42.253 54.279h-7.334c-0.812 0-1.47-0.658-1.47-1.47s0.658-1.47 1.47-1.47h7.334c0.812 0 1.47 0.658 1.47 1.47S43.065 54.279 42.253 54.279z"></path></g><g fill="black"><path fill="black" d="M62.054 77.579h-5.578c-4.099 0-7.433-3.334-7.433-7.433 0-0.121 0.015-0.242 0.045-0.359l2.834-11.244c0.165-0.653 0.752-1.11 1.425-1.11h11.836c0.673 0 1.261 0.457 1.425 1.11l2.835 11.244c0.03 0.117 0.045 0.238 0.045 0.359C69.488 74.245 66.153 77.579 62.054 77.579zM51.986 70.316c0.089 2.399 2.069 4.323 4.49 4.323h5.578c2.421 0 4.401-1.924 4.491-4.323l-2.507-9.944h-9.545L51.986 70.316z"></path></g><g fill="black"><path fill="black" d="M67.253 70.526H51.586c-0.812 0-1.47-0.658-1.47-1.47s0.658-1.47 1.47-1.47h15.667c0.812 0 1.47 0.658 1.47 1.47S68.065 70.526 67.253 70.526z"></path></g></svg></g></svg></g><g></g></svg></g></svg></g></svg></g></svg></g><defs><mask></mask></defs></svg><rect width="320" height="360" fill="black" stroke="none" visibility="hidden"></rect></g></mask></svg><rect width="320" height="360" fill="black" stroke="none" visibility="hidden"></rect></g></mask><linearGradient x1="0" x2="1" y1="0.5" y2="0.5" id="f038e3ad-75d8-47b1-b160-c3984d503412"><stop stop-color="#ffa62e" offset="0"></stop><stop stop-color="#f71b3d" offset="1"></stop></linearGradient><rect width="320.000094" height="360" fill="url(#f038e3ad-75d8-47b1-b160-c3984d503412)" mask="url(#903fbf1d-355c-4233-9986-d28765dddb2b)" data-fill-palette-color="accent"></rect><mask id="9fa5fc96-5d72-453e-9fb3-c9497de12f1b"><g id="SvgjsG2652"><svg viewBox="0 0 320 360" height="360" width="320"><g><svg></svg></g><g><svg viewBox="0 0 320 360" height="360" width="320"><g><path transform="translate(-74.99272,-51.79039) scale(4.65793,4.65793)" d="M20.6 59.9l0.8 1-0.4-1.3c-0.1-0.6-0.8 0.1-0.4 0.3M21.5 59.3c0.3 0.5 0.6 1 0.6 1.5 0 0.7 0.6 1 1.1 1.2-0.7-0.8-1.1-3-1.7-2.7M59.9 16.9c1.7 0 3.3-0.2 5.1 0.2 4.4 1.1 8.1 3.3 10.6 6.4l7 11.2c0.3 2.8 0.9 5.9 0.8 9.3 0.7 0 0.6-1 1.4-1.2-0.8 2-1.2 4.5-1.4 7.4-0.5-1.6 0-4 0.1-5.3-0.7 1.1-1.1 0.3-1.1-0.2 0.1-0.8-0.3-0.7-0.6-1-1.1-1-1.8-2.1-2.6-3.8 0.5-1.3 0.6-3.2-1-4.2-0.5-0.3-1.1-0.8-1.4-1.6-0.4-1.1-1.1-2.4-0.9-4.1 0.1-0.5-1.5 1.1-2.4 0.4-3.9-2.7-7.8-5.8-12.5-8.4-2.5 0-4.3-0.9-5.2-2-0.8-1-0.2-2.3 1-2.4 0.7 0 1.5-0.2 2.1 0.2 0.1-0.4 0.5-0.9 1-0.9M50 14.6l0.2 0.1c1 0.2 1.5 1.6 2.6 1.1 0 0.7 0.1 1.4-0.1 1.9-0.3 0.8-1.2 0.8-1.9 0.8-6.7-0.4-10.6 2.4-14.7 4.8-1.1 0.7-2.3 1.2-3.2 2.1-4.3 4-9 7.7-10.1 15.1l-0.9 8.2c-0.1 0.9-1.1 1.8-0.9 2.9l0.7 4.9c-0.7-0.7-1.1 0.2-0.9 0.6 0.1 0.3 0.5 1.3 1.1 0.4 0.8 1.5 1.6 4.4 2.7 5.7 3.4 4 7.8 7.6 11.4 11.2 0.9-0.2 1.6-0.2 1.8-0.8 0.3 0.6-0.3 1.2-0.8 1.3 1.6 1 3.4 1.9 5.8 2.1 3.1 0.2 6 0.7 8.7 1.4 1.4-0.4 2.8-0.6 4.3-0.7 0.5 0 0.8-0.8 1.4-1l0.1-1c0.6 0.9 0.5-0.3 0.1-0.9 0.7 0.6 0.9 1.1 1.2 1.5 0-0.3 0.8-1.4 0.8-0.1l0.2-1.3c0.3-0.2 0.4 1.1 0.7 0.2 0.3-0.9 0.9-0.2 1.5-0.5-0.2 0.4-0.1 1.2 0.6 0.7l0.8-0.7c0.5 1.2 1.3 0.7 1.7 0.5 4.4-2.8 8.8-6.1 13-9.4l-0.1 1.3 0.5-1.6c0.5 0.5 0.9 0.1 1.1-0.2 0.6-1 1.4-2 2.7-2.9-1.6 4.3-3.5 7.7-5.9 10.5l-1 1.2c0 0.7-0.2 1.6-1 1.7-0.4 0.1-1.2-0.2-1.8 0.4-0.3 0.4 0.7 1.2-0.1 0.6-0.7-0.5-1.4 0-2.2 0.2-0.6 0.2 0.4 0.8 0.6 1.2 0.2 0.4 0.4 0.8 0.3 1.3l-1.1-1.2c-1.3 0.7-2.1 2-3.2 3-0.5 0.4-0.3 1.1-0.3 1.7-0.7 0-1.5-0.2-1.9 0.2-0.3 0.4-0.2 1-0.2 1.6-1-0.1-1.1-1.6-2-1.3-0.9 0.2-1.9 0.3-2.7 0.8 0.6 1.2-1 0.5-0.8 0.7-1.5-0.9-2.8-1.6-4.4-1-3.4-1.1-7.6-0.6-10.7-0.2 0-0.5 0.1-1-0.1-1.1-0.2 0.5-0.8 0.3-0.7 0.3-1.9-1.3-3.8-2.1-5.8-3.2-1.8 0.2-3.5-0.7-4-1.2-1.4-1.3-3-0.6-4.3-0.9-2.8-0.7-3.8-3.6-4.1-5.6-0.2-1-1-1.4-1.3-1.3-1.3-4.2-3.3-8-4.9-11.9-0.4-1-0.3-2-0.3-3.1 0.5 0.2 1 0.1 0.9-0.6-0.5-3.3-1.7-5.8-3-8.2 0.7-3.4 0.8-7.4 2.4-10.4 1.4-2.7 4-4.1 5.8-6.4 0.6-0.8 0.6-1.9 1.2-2.6 2-2 4-4.1 6.2-5.9 1-0.8 2.2 0 3.7-0.3 0.5-1.8 2.5-3.4 4.4-2.9 0.8 0.2 2.4-1.9 2.9-2.1 0.8-0.3 0.4 0.8 0.4 1.5 1.9-1.5 4.5-2.3 6.9-3.2" fill="white" fill-rule="nonzero" stroke="none" stroke-width="1" stroke-linecap="butt" stroke-linejoin="miter" stroke-miterlimit="10" stroke-dasharray="" stroke-dashoffset="0" font-family="none" font-weight="none" font-size="none" text-anchor="none" style="mix-blend-mode: normal"></path></g><g transform="matrix(1,0,0,1,64,119.12811303435538)"><svg viewBox="0 0 192 121.74377393128924" height="121.74377393128924" width="192"><g><svg viewBox="0 0 192 121.74377393128924" height="121.74377393128924" width="192"><g><svg viewBox="0 0 192 121.74377393128924" height="121.74377393128924" width="192"><g transform="matrix(1,0,0,1,0,73.58418767343923)"><svg viewBox="0 0 192 48.159586257850016" height="48.159586257850016" width="192"><g id="SvgjsG2651"><svg viewBox="0 0 192 48.159586257850016" height="48.159586257850016" width="192" id="SvgjsSvg2650"><g><svg viewBox="0 0 192 48.159586257850016" height="48.159586257850016" width="192"><g transform="matrix(1,0,0,1,0,0)"><svg width="192" viewBox="3.6 -33.7 135.34 33.95" height="48.159586257850016" data-palette-color="url(#27a4e770-a96f-4fff-8525-cd1bc960728f)"></svg></g></svg></g></svg></g></svg></g><g transform="matrix(1,0,0,1,69.58873577948364,0)"><svg viewBox="0 0 52.822528441032716 66.55654820834873" height="66.55654820834873" width="52.822528441032716"><g><svg xmlns="http://www.w3.org/2000/svg" xmlns:xlink="http://www.w3.org/1999/xlink" version="1.1" x="0" y="0" viewBox="30.450000000000003 43.923 39.038 49.188" enable-background="new 0 0 100 100" xml:space="preserve" height="66.55654820834873" width="52.822528441032716" class="icon-icon-0" data-fill-palette-color="accent" id="SvgjsSvg2649"></svg></g></svg></g><g></g></svg></g></svg></g></svg></g></svg></g><defs><mask></mask></defs><mask><g id="SvgjsG2648"><svg viewBox="0 0 320 360" height="360" width="320"><g><svg></svg></g><g><svg viewBox="0 0 320 360" height="360" width="320"><g><path transform="translate(-74.99272,-51.79039) scale(4.65793,4.65793)" d="M20.6 59.9l0.8 1-0.4-1.3c-0.1-0.6-0.8 0.1-0.4 0.3M21.5 59.3c0.3 0.5 0.6 1 0.6 1.5 0 0.7 0.6 1 1.1 1.2-0.7-0.8-1.1-3-1.7-2.7M59.9 16.9c1.7 0 3.3-0.2 5.1 0.2 4.4 1.1 8.1 3.3 10.6 6.4l7 11.2c0.3 2.8 0.9 5.9 0.8 9.3 0.7 0 0.6-1 1.4-1.2-0.8 2-1.2 4.5-1.4 7.4-0.5-1.6 0-4 0.1-5.3-0.7 1.1-1.1 0.3-1.1-0.2 0.1-0.8-0.3-0.7-0.6-1-1.1-1-1.8-2.1-2.6-3.8 0.5-1.3 0.6-3.2-1-4.2-0.5-0.3-1.1-0.8-1.4-1.6-0.4-1.1-1.1-2.4-0.9-4.1 0.1-0.5-1.5 1.1-2.4 0.4-3.9-2.7-7.8-5.8-12.5-8.4-2.5 0-4.3-0.9-5.2-2-0.8-1-0.2-2.3 1-2.4 0.7 0 1.5-0.2 2.1 0.2 0.1-0.4 0.5-0.9 1-0.9M50 14.6l0.2 0.1c1 0.2 1.5 1.6 2.6 1.1 0 0.7 0.1 1.4-0.1 1.9-0.3 0.8-1.2 0.8-1.9 0.8-6.7-0.4-10.6 2.4-14.7 4.8-1.1 0.7-2.3 1.2-3.2 2.1-4.3 4-9 7.7-10.1 15.1l-0.9 8.2c-0.1 0.9-1.1 1.8-0.9 2.9l0.7 4.9c-0.7-0.7-1.1 0.2-0.9 0.6 0.1 0.3 0.5 1.3 1.1 0.4 0.8 1.5 1.6 4.4 2.7 5.7 3.4 4 7.8 7.6 11.4 11.2 0.9-0.2 1.6-0.2 1.8-0.8 0.3 0.6-0.3 1.2-0.8 1.3 1.6 1 3.4 1.9 5.8 2.1 3.1 0.2 6 0.7 8.7 1.4 1.4-0.4 2.8-0.6 4.3-0.7 0.5 0 0.8-0.8 1.4-1l0.1-1c0.6 0.9 0.5-0.3 0.1-0.9 0.7 0.6 0.9 1.1 1.2 1.5 0-0.3 0.8-1.4 0.8-0.1l0.2-1.3c0.3-0.2 0.4 1.1 0.7 0.2 0.3-0.9 0.9-0.2 1.5-0.5-0.2 0.4-0.1 1.2 0.6 0.7l0.8-0.7c0.5 1.2 1.3 0.7 1.7 0.5 4.4-2.8 8.8-6.1 13-9.4l-0.1 1.3 0.5-1.6c0.5 0.5 0.9 0.1 1.1-0.2 0.6-1 1.4-2 2.7-2.9-1.6 4.3-3.5 7.7-5.9 10.5l-1 1.2c0 0.7-0.2 1.6-1 1.7-0.4 0.1-1.2-0.2-1.8 0.4-0.3 0.4 0.7 1.2-0.1 0.6-0.7-0.5-1.4 0-2.2 0.2-0.6 0.2 0.4 0.8 0.6 1.2 0.2 0.4 0.4 0.8 0.3 1.3l-1.1-1.2c-1.3 0.7-2.1 2-3.2 3-0.5 0.4-0.3 1.1-0.3 1.7-0.7 0-1.5-0.2-1.9 0.2-0.3 0.4-0.2 1-0.2 1.6-1-0.1-1.1-1.6-2-1.3-0.9 0.2-1.9 0.3-2.7 0.8 0.6 1.2-1 0.5-0.8 0.7-1.5-0.9-2.8-1.6-4.4-1-3.4-1.1-7.6-0.6-10.7-0.2 0-0.5 0.1-1-0.1-1.1-0.2 0.5-0.8 0.3-0.7 0.3-1.9-1.3-3.8-2.1-5.8-3.2-1.8 0.2-3.5-0.7-4-1.2-1.4-1.3-3-0.6-4.3-0.9-2.8-0.7-3.8-3.6-4.1-5.6-0.2-1-1-1.4-1.3-1.3-1.3-4.2-3.3-8-4.9-11.9-0.4-1-0.3-2-0.3-3.1 0.5 0.2 1 0.1 0.9-0.6-0.5-3.3-1.7-5.8-3-8.2 0.7-3.4 0.8-7.4 2.4-10.4 1.4-2.7 4-4.1 5.8-6.4 0.6-0.8 0.6-1.9 1.2-2.6 2-2 4-4.1 6.2-5.9 1-0.8 2.2 0 3.7-0.3 0.5-1.8 2.5-3.4 4.4-2.9 0.8 0.2 2.4-1.9 2.9-2.1 0.8-0.3 0.4 0.8 0.4 1.5 1.9-1.5 4.5-2.3 6.9-3.2" fill="black" fill-rule="nonzero" stroke="none" stroke-width="1" stroke-linecap="butt" stroke-linejoin="miter" stroke-miterlimit="10" stroke-dasharray="" stroke-dashoffset="0" font-family="none" font-weight="none" font-size="none" text-anchor="none" style="mix-blend-mode: normal"></path></g><g transform="matrix(1,0,0,1,64,119.12811303435538)"><svg viewBox="0 0 192 121.74377393128924" height="121.74377393128924" width="192"><g><svg viewBox="0 0 192 121.74377393128924" height="121.74377393128924" width="192"><g><svg viewBox="0 0 192 121.74377393128924" height="121.74377393128924" width="192"><g transform="matrix(1,0,0,1,0,73.58418767343923)"><svg viewBox="0 0 192 48.159586257850016" height="48.159586257850016" width="192"><g id="SvgjsG2647"><svg viewBox="0 0 192 48.159586257850016" height="48.159586257850016" width="192" id="SvgjsSvg2646"><g><svg viewBox="0 0 192 48.159586257850016" height="48.159586257850016" width="192"><g transform="matrix(1,0,0,1,0,0)"><svg width="192" viewBox="3.6 -33.7 135.34 33.95" height="48.159586257850016" data-palette-color="url(#27a4e770-a96f-4fff-8525-cd1bc960728f)"><path d="M9.25-1.8Q9.1-1.05 8.38-0.53 7.65 0 6.35 0L6.35 0Q5.25 0 4.63-0.6 4-1.2 3.95-1.85L3.95-1.85Q4.25-3.95 4.25-8.15L4.25-8.15Q4.25-10.65 3.95-15.85L3.95-15.85Q3.6-20.75 3.6-24.55L3.6-24.55Q3.6-26.6 3.8-28.75L3.8-28.75Q3.8-29.45 4.63-30.25 5.45-31.05 6.9-31.25L6.9-31.25Q11.65-31.75 18.55-31.75L18.55-31.75 20.15-31.75Q21.95-31.75 23.68-31.1 25.4-30.45 25.4-28.85L25.4-28.85Q25.4-27.8 24.9-27.2 24.4-26.6 23.05-26.6L23.05-26.6Q22.4-26.6 21.55-26.7 20.7-26.8 20.35-26.85L20.35-26.85Q18.45-27.15 17.4-27.15L17.4-27.15Q11.6-27.15 8.65-26.35L8.65-26.35Q8.65-24.7 8.75-21L8.75-21 8.8-17.8Q11.4-17.8 13.45-18.03 15.5-18.25 15.8-18.3L15.8-18.3Q18.4-18.6 19.25-18.6L19.25-18.6Q20.45-18.6 21.28-18.07 22.1-17.55 22.1-16.45L22.1-16.45Q22.1-13.95 18.6-13.95L18.6-13.95Q17.75-13.95 17.1-13.9 16.45-13.85 16-13.8L16-13.8Q14.2-13.6 13.15-13.6L13.15-13.6Q10.85-13.6 9.25-13.45L9.25-13.45Q9.25-11.6 9.4-9.55L9.4-9.55Q9.4-8.9 9.47-7.55 9.55-6.2 9.55-5.1L9.55-5.1Q9.55-4.15 9.5-3.35 9.45-2.55 9.25-1.8L9.25-1.8ZM48.1-16.05Q48.5-15.35 48.75-14.03 49-12.7 49-11.65L49-11.65Q49-9.7 48.15-6.1L48.15-6.1Q44.7 0.2 37.95 0.2L37.95 0.2Q35.45 0.2 32.85-1.45 30.25-3.1 29.25-5.25L29.25-5.25Q27.9-9.55 27.9-10.7L27.9-10.7Q27.9-12.7 28.77-14.95 29.65-17.2 31-18.85L31-18.85Q31.85-20 34.05-20.83 36.25-21.65 38.05-21.65L38.05-21.65Q41.55-21.65 44-20.33 46.45-19 48.1-16.05L48.1-16.05ZM43.75-8Q44-8.65 44-11.35L44-11.35Q44-12.8 43.47-14.2 42.95-15.6 41.95-16.6L41.95-16.6Q41.85-16.7 41.4-16.93 40.95-17.15 40.17-17.38 39.4-17.6 38.4-17.6L38.4-17.6Q35.6-17.6 34.3-15.35 33-13.1 33-10.25L33-10.25Q33-9.75 33.27-8.35 33.55-6.95 33.75-6.6L33.75-6.6Q33.9-6.25 34.52-5.63 35.15-5 36.07-4.53 37-4.05 38-4.05L38-4.05Q40.25-4.05 41.6-5.13 42.95-6.2 43.75-8L43.75-8ZM73.7-16.05Q74.09-15.35 74.34-14.03 74.59-12.7 74.59-11.65L74.59-11.65Q74.59-9.7 73.75-6.1L73.75-6.1Q70.3 0.2 63.55 0.2L63.55 0.2Q61.05 0.2 58.45-1.45 55.85-3.1 54.85-5.25L54.85-5.25Q53.5-9.55 53.5-10.7L53.5-10.7Q53.5-12.7 54.37-14.95 55.25-17.2 56.6-18.85L56.6-18.85Q57.45-20 59.65-20.83 61.85-21.65 63.65-21.65L63.65-21.65Q67.15-21.65 69.59-20.33 72.05-19 73.7-16.05L73.7-16.05ZM69.34-8Q69.59-8.65 69.59-11.35L69.59-11.35Q69.59-12.8 69.07-14.2 68.55-15.6 67.55-16.6L67.55-16.6Q67.45-16.7 67-16.93 66.55-17.15 65.77-17.38 65-17.6 64-17.6L64-17.6Q61.2-17.6 59.9-15.35 58.6-13.1 58.6-10.25L58.6-10.25Q58.6-9.75 58.87-8.35 59.15-6.95 59.35-6.6L59.35-6.6Q59.5-6.25 60.12-5.63 60.75-5 61.67-4.53 62.6-4.05 63.6-4.05L63.6-4.05Q65.84-4.05 67.2-5.13 68.55-6.2 69.34-8L69.34-8ZM99.44-31.3Q99.44-30.8 99.19-28.55L99.19-28.55Q98.64-23.05 98.64-17.4L98.64-17.4Q98.64-12.45 98.79-9.85 98.94-7.25 99.54-5.88 100.14-4.5 101.39-4.5L101.39-4.5Q103.79-4.5 103.79-2.9L103.79-2.9Q103.79-1.85 102.74-1.13 101.69-0.4 100.44-0.4L100.44-0.4Q98.94-0.4 97.64-1.1 96.34-1.8 95.59-3.25L95.59-3.25Q94.54-1.7 92.57-0.78 90.59 0.15 88.74 0.15L88.74 0.15Q85.89 0.15 83.69-1.05 81.49-2.25 80.29-4.33 79.09-6.4 79.09-8.9L79.09-8.9Q79.09-11.3 79.67-13.53 80.24-15.75 81.24-17.2L81.24-17.2Q82.59-19.1 84.87-20.23 87.14-21.35 89.34-21.35L89.34-21.35Q90.69-21.35 91.89-20.83 93.09-20.3 93.99-19.55L93.99-19.55Q93.99-22.9 93.94-23.75L93.94-23.75 93.94-24.8Q93.94-29.45 94.54-31.6L94.54-31.6Q95.09-33.7 97.19-33.7L97.19-33.7Q98.34-33.7 98.89-33.2 99.44-32.7 99.44-31.3L99.44-31.3ZM84.04-9Q84.04-6.7 85.37-5.3 86.69-3.9 88.54-3.9L88.54-3.9Q91.19-3.9 92.47-5.55 93.74-7.2 93.74-9.8L93.74-9.8 93.69-14.75Q91.74-16.9 89.64-16.9L89.64-16.9Q88.19-16.9 86.92-16.18 85.64-15.45 84.89-14L84.89-14Q84.04-12.35 84.04-9L84.04-9ZM109.64-32.1Q111.39-31.95 112.69-31.18 113.99-30.4 113.99-28.85L113.99-28.85Q113.99-27.7 112.91-27.03 111.84-26.35 110.34-26.35L110.34-26.35Q108.89-26.35 108.34-27.1 107.79-27.85 107.79-28.65L107.79-28.65Q107.79-30.15 108.11-31.15 108.44-32.15 109.64-32.1L109.64-32.1ZM113.64-18.95L113.64-9.95 113.64-8.5Q113.64-6.55 113.77-4.83 113.89-3.1 114.09-1.35L114.09-1.35Q114.04-0.85 113.34-0.33 112.64 0.2 112.09 0.2L112.09 0.2Q111.14 0.2 110.16-0.18 109.19-0.55 108.99-1.1L108.99-1.1Q108.69-2.7 108.69-3.95L108.69-3.95Q108.69-8.05 108.44-13.15L108.44-13.15Q108.24-17.65 108.24-19.45L108.24-19.45Q108.24-20.35 109.14-21 110.04-21.65 111.04-21.65L111.04-21.65Q112.49-21.65 113.06-21 113.64-20.35 113.64-18.95L113.64-18.95ZM119.49-10.6Q119.49-12.5 120.19-14.43 120.89-16.35 122.04-17.95L122.04-17.95Q123.19-19.55 125.69-20.58 128.19-21.6 130.14-21.6L130.14-21.6Q132.14-21.6 134.21-21.05 136.29-20.5 137.09-19.35L137.09-19.35Q138.94-16.75 138.94-14.25L138.94-14.25Q138.94-12.9 138.36-11.95 137.79-11 136.74-9.9L136.74-9.9Q135.89-9 134.06-8.7 132.24-8.4 130.44-8.4L130.44-8.4Q129.29-8.4 127.64-8.63 125.99-8.85 124.44-9.2L124.44-9.2Q124.54-8.2 124.94-7.25 125.34-6.3 125.89-5.8L125.89-5.8Q126.89-4.85 127.96-4.6 129.04-4.35 130.74-4.35L130.74-4.35Q132.54-4.35 134.09-4.95L134.09-4.95Q135.34-5.4 136.14-5.4L136.14-5.4Q137.09-5.4 137.59-4.83 138.09-4.25 138.09-3.35L138.09-3.35Q138.09-2.1 136.64-1.3 135.19-0.5 133.31-0.13 131.44 0.25 130.29 0.25L130.29 0.25Q127.94 0.25 125.74-0.6 123.54-1.45 122.09-3L122.09-3Q120.89-4.4 120.19-6.38 119.49-8.35 119.49-10.6L119.49-10.6ZM130.39-17.35Q129.29-17.35 128.19-16.93 127.09-16.5 126.39-15.75L126.39-15.75Q125.49-14.8 125.16-14.23 124.84-13.65 124.74-12.65L124.74-12.65Q125.99-12.25 129.94-12.25L129.94-12.25Q132.09-12.25 133.26-12.9 134.44-13.55 134.44-14.6L134.44-14.6Q134.44-15.65 133.14-16.5 131.84-17.35 130.39-17.35L130.39-17.35Z" opacity="1" transform="matrix(1,0,0,1,0,0)" fill="black" class="wordmark-text-0" id="SvgjsPath2645"></path></svg></g></svg></g></svg></g></svg></g><g transform="matrix(1,0,0,1,69.58873577948364,0)"><svg viewBox="0 0 52.822528441032716 66.55654820834873" height="66.55654820834873" width="52.822528441032716"><g><svg xmlns="http://www.w3.org/2000/svg" xmlns:xlink="http://www.w3.org/1999/xlink" version="1.1" x="0" y="0" viewBox="30.450000000000003 43.923 39.038 49.188" enable-background="new 0 0 100 100" xml:space="preserve" height="66.55654820834873" width="52.822528441032716" class="icon-icon-0" data-fill-palette-color="accent" id="SvgjsSvg2644"><g fill="black"><path fill="black" d="M38.836 76.902c-3.083 0-5.654-2.312-6.029-5.338-0.062-0.158-0.097-0.328-0.097-0.507V45.393c0-0.812 0.658-1.47 1.47-1.47h9.281c0.812 0 1.47 0.658 1.47 1.47v25.665c0 0.135-0.019 0.266-0.052 0.39C44.557 74.53 41.96 76.902 38.836 76.902zM35.65 70.663c0.03 0.101 0.048 0.206 0.054 0.315 0.091 1.673 1.466 2.984 3.132 2.984s3.041-1.312 3.132-2.984c0.003-0.066 0.011-0.131 0.023-0.193V46.862H35.65V70.663z"></path></g><g fill="black"><path fill="black" d="M38.753 92.444c-0.812 0-1.47-0.658-1.47-1.47V76.309c0-0.812 0.658-1.47 1.47-1.47s1.47 0.658 1.47 1.47v14.666C40.224 91.786 39.565 92.444 38.753 92.444z"></path></g><g fill="black"><path fill="black" d="M45.586 93.111H31.92c-0.812 0-1.47-0.658-1.47-1.47s0.658-1.47 1.47-1.47h13.666c0.812 0 1.47 0.658 1.47 1.47S46.398 93.111 45.586 93.111z"></path></g><g fill="black"><path fill="black" d="M59.104 92.444c-0.812 0-1.47-0.658-1.47-1.47V76.309c0-0.812 0.658-1.47 1.47-1.47s1.47 0.658 1.47 1.47v14.666C60.574 91.786 59.916 92.444 59.104 92.444z"></path></g><g fill="black"><path fill="black" d="M65.937 93.111H52.271c-0.812 0-1.47-0.658-1.47-1.47s0.658-1.47 1.47-1.47h13.666c0.812 0 1.47 0.658 1.47 1.47S66.749 93.111 65.937 93.111z"></path></g><g fill="black"><path fill="black" d="M42.253 54.279h-7.334c-0.812 0-1.47-0.658-1.47-1.47s0.658-1.47 1.47-1.47h7.334c0.812 0 1.47 0.658 1.47 1.47S43.065 54.279 42.253 54.279z"></path></g><g fill="black"><path fill="black" d="M62.054 77.579h-5.578c-4.099 0-7.433-3.334-7.433-7.433 0-0.121 0.015-0.242 0.045-0.359l2.834-11.244c0.165-0.653 0.752-1.11 1.425-1.11h11.836c0.673 0 1.261 0.457 1.425 1.11l2.835 11.244c0.03 0.117 0.045 0.238 0.045 0.359C69.488 74.245 66.153 77.579 62.054 77.579zM51.986 70.316c0.089 2.399 2.069 4.323 4.49 4.323h5.578c2.421 0 4.401-1.924 4.491-4.323l-2.507-9.944h-9.545L51.986 70.316z"></path></g><g fill="black"><path fill="black" d="M67.253 70.526H51.586c-0.812 0-1.47-0.658-1.47-1.47s0.658-1.47 1.47-1.47h15.667c0.812 0 1.47 0.658 1.47 1.47S68.065 70.526 67.253 70.526z"></path></g></svg></g></svg></g><g></g></svg></g></svg></g></svg></g></svg></g><defs><mask></mask></defs></svg><rect width="320" height="360" fill="black" stroke="none" visibility="hidden"></rect></g></mask><mask><g id="SvgjsG2643"><svg viewBox="0 0 320 360" height="360" width="320"><g><svg></svg></g><g><svg viewBox="0 0 320 360" height="360" width="320"><g><path transform="translate(-74.99272,-51.79039) scale(4.65793,4.65793)" d="M20.6 59.9l0.8 1-0.4-1.3c-0.1-0.6-0.8 0.1-0.4 0.3M21.5 59.3c0.3 0.5 0.6 1 0.6 1.5 0 0.7 0.6 1 1.1 1.2-0.7-0.8-1.1-3-1.7-2.7M59.9 16.9c1.7 0 3.3-0.2 5.1 0.2 4.4 1.1 8.1 3.3 10.6 6.4l7 11.2c0.3 2.8 0.9 5.9 0.8 9.3 0.7 0 0.6-1 1.4-1.2-0.8 2-1.2 4.5-1.4 7.4-0.5-1.6 0-4 0.1-5.3-0.7 1.1-1.1 0.3-1.1-0.2 0.1-0.8-0.3-0.7-0.6-1-1.1-1-1.8-2.1-2.6-3.8 0.5-1.3 0.6-3.2-1-4.2-0.5-0.3-1.1-0.8-1.4-1.6-0.4-1.1-1.1-2.4-0.9-4.1 0.1-0.5-1.5 1.1-2.4 0.4-3.9-2.7-7.8-5.8-12.5-8.4-2.5 0-4.3-0.9-5.2-2-0.8-1-0.2-2.3 1-2.4 0.7 0 1.5-0.2 2.1 0.2 0.1-0.4 0.5-0.9 1-0.9M50 14.6l0.2 0.1c1 0.2 1.5 1.6 2.6 1.1 0 0.7 0.1 1.4-0.1 1.9-0.3 0.8-1.2 0.8-1.9 0.8-6.7-0.4-10.6 2.4-14.7 4.8-1.1 0.7-2.3 1.2-3.2 2.1-4.3 4-9 7.7-10.1 15.1l-0.9 8.2c-0.1 0.9-1.1 1.8-0.9 2.9l0.7 4.9c-0.7-0.7-1.1 0.2-0.9 0.6 0.1 0.3 0.5 1.3 1.1 0.4 0.8 1.5 1.6 4.4 2.7 5.7 3.4 4 7.8 7.6 11.4 11.2 0.9-0.2 1.6-0.2 1.8-0.8 0.3 0.6-0.3 1.2-0.8 1.3 1.6 1 3.4 1.9 5.8 2.1 3.1 0.2 6 0.7 8.7 1.4 1.4-0.4 2.8-0.6 4.3-0.7 0.5 0 0.8-0.8 1.4-1l0.1-1c0.6 0.9 0.5-0.3 0.1-0.9 0.7 0.6 0.9 1.1 1.2 1.5 0-0.3 0.8-1.4 0.8-0.1l0.2-1.3c0.3-0.2 0.4 1.1 0.7 0.2 0.3-0.9 0.9-0.2 1.5-0.5-0.2 0.4-0.1 1.2 0.6 0.7l0.8-0.7c0.5 1.2 1.3 0.7 1.7 0.5 4.4-2.8 8.8-6.1 13-9.4l-0.1 1.3 0.5-1.6c0.5 0.5 0.9 0.1 1.1-0.2 0.6-1 1.4-2 2.7-2.9-1.6 4.3-3.5 7.7-5.9 10.5l-1 1.2c0 0.7-0.2 1.6-1 1.7-0.4 0.1-1.2-0.2-1.8 0.4-0.3 0.4 0.7 1.2-0.1 0.6-0.7-0.5-1.4 0-2.2 0.2-0.6 0.2 0.4 0.8 0.6 1.2 0.2 0.4 0.4 0.8 0.3 1.3l-1.1-1.2c-1.3 0.7-2.1 2-3.2 3-0.5 0.4-0.3 1.1-0.3 1.7-0.7 0-1.5-0.2-1.9 0.2-0.3 0.4-0.2 1-0.2 1.6-1-0.1-1.1-1.6-2-1.3-0.9 0.2-1.9 0.3-2.7 0.8 0.6 1.2-1 0.5-0.8 0.7-1.5-0.9-2.8-1.6-4.4-1-3.4-1.1-7.6-0.6-10.7-0.2 0-0.5 0.1-1-0.1-1.1-0.2 0.5-0.8 0.3-0.7 0.3-1.9-1.3-3.8-2.1-5.8-3.2-1.8 0.2-3.5-0.7-4-1.2-1.4-1.3-3-0.6-4.3-0.9-2.8-0.7-3.8-3.6-4.1-5.6-0.2-1-1-1.4-1.3-1.3-1.3-4.2-3.3-8-4.9-11.9-0.4-1-0.3-2-0.3-3.1 0.5 0.2 1 0.1 0.9-0.6-0.5-3.3-1.7-5.8-3-8.2 0.7-3.4 0.8-7.4 2.4-10.4 1.4-2.7 4-4.1 5.8-6.4 0.6-0.8 0.6-1.9 1.2-2.6 2-2 4-4.1 6.2-5.9 1-0.8 2.2 0 3.7-0.3 0.5-1.8 2.5-3.4 4.4-2.9 0.8 0.2 2.4-1.9 2.9-2.1 0.8-0.3 0.4 0.8 0.4 1.5 1.9-1.5 4.5-2.3 6.9-3.2" fill="black" fill-rule="nonzero" stroke="none" stroke-width="1" stroke-linecap="butt" stroke-linejoin="miter" stroke-miterlimit="10" stroke-dasharray="" stroke-dashoffset="0" font-family="none" font-weight="none" font-size="none" text-anchor="none" style="mix-blend-mode: normal"></path></g><g transform="matrix(1,0,0,1,64,119.12811303435538)"><svg viewBox="0 0 192 121.74377393128924" height="121.74377393128924" width="192"><g><svg viewBox="0 0 192 121.74377393128924" height="121.74377393128924" width="192"><g><svg viewBox="0 0 192 121.74377393128924" height="121.74377393128924" width="192"><g transform="matrix(1,0,0,1,0,73.58418767343923)"><svg viewBox="0 0 192 48.159586257850016" height="48.159586257850016" width="192"><g id="SvgjsG2642"><svg viewBox="0 0 192 48.159586257850016" height="48.159586257850016" width="192" id="SvgjsSvg2641"><g><svg viewBox="0 0 192 48.159586257850016" height="48.159586257850016" width="192"><g transform="matrix(1,0,0,1,0,0)"><svg width="192" viewBox="3.6 -33.7 135.34 33.95" height="48.159586257850016" data-palette-color="url(#27a4e770-a96f-4fff-8525-cd1bc960728f)"></svg></g></svg></g></svg></g></svg></g><g transform="matrix(1,0,0,1,69.58873577948364,0)"><svg viewBox="0 0 52.822528441032716 66.55654820834873" height="66.55654820834873" width="52.822528441032716"><g><svg xmlns="http://www.w3.org/2000/svg" xmlns:xlink="http://www.w3.org/1999/xlink" version="1.1" x="0" y="0" viewBox="30.450000000000003 43.923 39.038 49.188" enable-background="new 0 0 100 100" xml:space="preserve" height="66.55654820834873" width="52.822528441032716" class="icon-icon-0" data-fill-palette-color="accent" id="SvgjsSvg2640"><g fill="black"><path fill="black" d="M38.836 76.902c-3.083 0-5.654-2.312-6.029-5.338-0.062-0.158-0.097-0.328-0.097-0.507V45.393c0-0.812 0.658-1.47 1.47-1.47h9.281c0.812 0 1.47 0.658 1.47 1.47v25.665c0 0.135-0.019 0.266-0.052 0.39C44.557 74.53 41.96 76.902 38.836 76.902zM35.65 70.663c0.03 0.101 0.048 0.206 0.054 0.315 0.091 1.673 1.466 2.984 3.132 2.984s3.041-1.312 3.132-2.984c0.003-0.066 0.011-0.131 0.023-0.193V46.862H35.65V70.663z"></path></g><g fill="black"><path fill="black" d="M38.753 92.444c-0.812 0-1.47-0.658-1.47-1.47V76.309c0-0.812 0.658-1.47 1.47-1.47s1.47 0.658 1.47 1.47v14.666C40.224 91.786 39.565 92.444 38.753 92.444z"></path></g><g fill="black"><path fill="black" d="M45.586 93.111H31.92c-0.812 0-1.47-0.658-1.47-1.47s0.658-1.47 1.47-1.47h13.666c0.812 0 1.47 0.658 1.47 1.47S46.398 93.111 45.586 93.111z"></path></g><g fill="black"><path fill="black" d="M59.104 92.444c-0.812 0-1.47-0.658-1.47-1.47V76.309c0-0.812 0.658-1.47 1.47-1.47s1.47 0.658 1.47 1.47v14.666C60.574 91.786 59.916 92.444 59.104 92.444z"></path></g><g fill="black"><path fill="black" d="M65.937 93.111H52.271c-0.812 0-1.47-0.658-1.47-1.47s0.658-1.47 1.47-1.47h13.666c0.812 0 1.47 0.658 1.47 1.47S66.749 93.111 65.937 93.111z"></path></g><g fill="black"><path fill="black" d="M42.253 54.279h-7.334c-0.812 0-1.47-0.658-1.47-1.47s0.658-1.47 1.47-1.47h7.334c0.812 0 1.47 0.658 1.47 1.47S43.065 54.279 42.253 54.279z"></path></g><g fill="black"><path fill="black" d="M62.054 77.579h-5.578c-4.099 0-7.433-3.334-7.433-7.433 0-0.121 0.015-0.242 0.045-0.359l2.834-11.244c0.165-0.653 0.752-1.11 1.425-1.11h11.836c0.673 0 1.261 0.457 1.425 1.11l2.835 11.244c0.03 0.117 0.045 0.238 0.045 0.359C69.488 74.245 66.153 77.579 62.054 77.579zM51.986 70.316c0.089 2.399 2.069 4.323 4.49 4.323h5.578c2.421 0 4.401-1.924 4.491-4.323l-2.507-9.944h-9.545L51.986 70.316z"></path></g><g fill="black"><path fill="black" d="M67.253 70.526H51.586c-0.812 0-1.47-0.658-1.47-1.47s0.658-1.47 1.47-1.47h15.667c0.812 0 1.47 0.658 1.47 1.47S68.065 70.526 67.253 70.526z"></path></g></svg></g></svg></g><g></g></svg></g></svg></g></svg></g></svg></g><defs><mask></mask></defs><mask><g id="SvgjsG2639"><svg viewBox="0 0 320 360" height="360" width="320"><g><svg></svg></g><g><svg viewBox="0 0 320 360" height="360" width="320"><g><path transform="translate(-74.99272,-51.79039) scale(4.65793,4.65793)" d="M20.6 59.9l0.8 1-0.4-1.3c-0.1-0.6-0.8 0.1-0.4 0.3M21.5 59.3c0.3 0.5 0.6 1 0.6 1.5 0 0.7 0.6 1 1.1 1.2-0.7-0.8-1.1-3-1.7-2.7M59.9 16.9c1.7 0 3.3-0.2 5.1 0.2 4.4 1.1 8.1 3.3 10.6 6.4l7 11.2c0.3 2.8 0.9 5.9 0.8 9.3 0.7 0 0.6-1 1.4-1.2-0.8 2-1.2 4.5-1.4 7.4-0.5-1.6 0-4 0.1-5.3-0.7 1.1-1.1 0.3-1.1-0.2 0.1-0.8-0.3-0.7-0.6-1-1.1-1-1.8-2.1-2.6-3.8 0.5-1.3 0.6-3.2-1-4.2-0.5-0.3-1.1-0.8-1.4-1.6-0.4-1.1-1.1-2.4-0.9-4.1 0.1-0.5-1.5 1.1-2.4 0.4-3.9-2.7-7.8-5.8-12.5-8.4-2.5 0-4.3-0.9-5.2-2-0.8-1-0.2-2.3 1-2.4 0.7 0 1.5-0.2 2.1 0.2 0.1-0.4 0.5-0.9 1-0.9M50 14.6l0.2 0.1c1 0.2 1.5 1.6 2.6 1.1 0 0.7 0.1 1.4-0.1 1.9-0.3 0.8-1.2 0.8-1.9 0.8-6.7-0.4-10.6 2.4-14.7 4.8-1.1 0.7-2.3 1.2-3.2 2.1-4.3 4-9 7.7-10.1 15.1l-0.9 8.2c-0.1 0.9-1.1 1.8-0.9 2.9l0.7 4.9c-0.7-0.7-1.1 0.2-0.9 0.6 0.1 0.3 0.5 1.3 1.1 0.4 0.8 1.5 1.6 4.4 2.7 5.7 3.4 4 7.8 7.6 11.4 11.2 0.9-0.2 1.6-0.2 1.8-0.8 0.3 0.6-0.3 1.2-0.8 1.3 1.6 1 3.4 1.9 5.8 2.1 3.1 0.2 6 0.7 8.7 1.4 1.4-0.4 2.8-0.6 4.3-0.7 0.5 0 0.8-0.8 1.4-1l0.1-1c0.6 0.9 0.5-0.3 0.1-0.9 0.7 0.6 0.9 1.1 1.2 1.5 0-0.3 0.8-1.4 0.8-0.1l0.2-1.3c0.3-0.2 0.4 1.1 0.7 0.2 0.3-0.9 0.9-0.2 1.5-0.5-0.2 0.4-0.1 1.2 0.6 0.7l0.8-0.7c0.5 1.2 1.3 0.7 1.7 0.5 4.4-2.8 8.8-6.1 13-9.4l-0.1 1.3 0.5-1.6c0.5 0.5 0.9 0.1 1.1-0.2 0.6-1 1.4-2 2.7-2.9-1.6 4.3-3.5 7.7-5.9 10.5l-1 1.2c0 0.7-0.2 1.6-1 1.7-0.4 0.1-1.2-0.2-1.8 0.4-0.3 0.4 0.7 1.2-0.1 0.6-0.7-0.5-1.4 0-2.2 0.2-0.6 0.2 0.4 0.8 0.6 1.2 0.2 0.4 0.4 0.8 0.3 1.3l-1.1-1.2c-1.3 0.7-2.1 2-3.2 3-0.5 0.4-0.3 1.1-0.3 1.7-0.7 0-1.5-0.2-1.9 0.2-0.3 0.4-0.2 1-0.2 1.6-1-0.1-1.1-1.6-2-1.3-0.9 0.2-1.9 0.3-2.7 0.8 0.6 1.2-1 0.5-0.8 0.7-1.5-0.9-2.8-1.6-4.4-1-3.4-1.1-7.6-0.6-10.7-0.2 0-0.5 0.1-1-0.1-1.1-0.2 0.5-0.8 0.3-0.7 0.3-1.9-1.3-3.8-2.1-5.8-3.2-1.8 0.2-3.5-0.7-4-1.2-1.4-1.3-3-0.6-4.3-0.9-2.8-0.7-3.8-3.6-4.1-5.6-0.2-1-1-1.4-1.3-1.3-1.3-4.2-3.3-8-4.9-11.9-0.4-1-0.3-2-0.3-3.1 0.5 0.2 1 0.1 0.9-0.6-0.5-3.3-1.7-5.8-3-8.2 0.7-3.4 0.8-7.4 2.4-10.4 1.4-2.7 4-4.1 5.8-6.4 0.6-0.8 0.6-1.9 1.2-2.6 2-2 4-4.1 6.2-5.9 1-0.8 2.2 0 3.7-0.3 0.5-1.8 2.5-3.4 4.4-2.9 0.8 0.2 2.4-1.9 2.9-2.1 0.8-0.3 0.4 0.8 0.4 1.5 1.9-1.5 4.5-2.3 6.9-3.2" fill="black" fill-rule="nonzero" stroke="none" stroke-width="1" stroke-linecap="butt" stroke-linejoin="miter" stroke-miterlimit="10" stroke-dasharray="" stroke-dashoffset="0" font-family="none" font-weight="none" font-size="none" text-anchor="none" style="mix-blend-mode: normal"></path></g><g transform="matrix(1,0,0,1,64,119.12811303435538)"><svg viewBox="0 0 192 121.74377393128924" height="121.74377393128924" width="192"><g><svg viewBox="0 0 192 121.74377393128924" height="121.74377393128924" width="192"><g><svg viewBox="0 0 192 121.74377393128924" height="121.74377393128924" width="192"><g transform="matrix(1,0,0,1,0,73.58418767343923)"><svg viewBox="0 0 192 48.159586257850016" height="48.159586257850016" width="192"><g id="SvgjsG2638"><svg viewBox="0 0 192 48.159586257850016" height="48.159586257850016" width="192" id="SvgjsSvg2637"><g><svg viewBox="0 0 192 48.159586257850016" height="48.159586257850016" width="192"><g transform="matrix(1,0,0,1,0,0)"><svg width="192" viewBox="3.6 -33.7 135.34 33.95" height="48.159586257850016" data-palette-color="url(#27a4e770-a96f-4fff-8525-cd1bc960728f)"><path d="M9.25-1.8Q9.1-1.05 8.38-0.53 7.65 0 6.35 0L6.35 0Q5.25 0 4.63-0.6 4-1.2 3.95-1.85L3.95-1.85Q4.25-3.95 4.25-8.15L4.25-8.15Q4.25-10.65 3.95-15.85L3.95-15.85Q3.6-20.75 3.6-24.55L3.6-24.55Q3.6-26.6 3.8-28.75L3.8-28.75Q3.8-29.45 4.63-30.25 5.45-31.05 6.9-31.25L6.9-31.25Q11.65-31.75 18.55-31.75L18.55-31.75 20.15-31.75Q21.95-31.75 23.68-31.1 25.4-30.45 25.4-28.85L25.4-28.85Q25.4-27.8 24.9-27.2 24.4-26.6 23.05-26.6L23.05-26.6Q22.4-26.6 21.55-26.7 20.7-26.8 20.35-26.85L20.35-26.85Q18.45-27.15 17.4-27.15L17.4-27.15Q11.6-27.15 8.65-26.35L8.65-26.35Q8.65-24.7 8.75-21L8.75-21 8.8-17.8Q11.4-17.8 13.45-18.03 15.5-18.25 15.8-18.3L15.8-18.3Q18.4-18.6 19.25-18.6L19.25-18.6Q20.45-18.6 21.28-18.07 22.1-17.55 22.1-16.45L22.1-16.45Q22.1-13.95 18.6-13.95L18.6-13.95Q17.75-13.95 17.1-13.9 16.45-13.85 16-13.8L16-13.8Q14.2-13.6 13.15-13.6L13.15-13.6Q10.85-13.6 9.25-13.45L9.25-13.45Q9.25-11.6 9.4-9.55L9.4-9.55Q9.4-8.9 9.47-7.55 9.55-6.2 9.55-5.1L9.55-5.1Q9.55-4.15 9.5-3.35 9.45-2.55 9.25-1.8L9.25-1.8ZM48.1-16.05Q48.5-15.35 48.75-14.03 49-12.7 49-11.65L49-11.65Q49-9.7 48.15-6.1L48.15-6.1Q44.7 0.2 37.95 0.2L37.95 0.2Q35.45 0.2 32.85-1.45 30.25-3.1 29.25-5.25L29.25-5.25Q27.9-9.55 27.9-10.7L27.9-10.7Q27.9-12.7 28.77-14.95 29.65-17.2 31-18.85L31-18.85Q31.85-20 34.05-20.83 36.25-21.65 38.05-21.65L38.05-21.65Q41.55-21.65 44-20.33 46.45-19 48.1-16.05L48.1-16.05ZM43.75-8Q44-8.65 44-11.35L44-11.35Q44-12.8 43.47-14.2 42.95-15.6 41.95-16.6L41.95-16.6Q41.85-16.7 41.4-16.93 40.95-17.15 40.17-17.38 39.4-17.6 38.4-17.6L38.4-17.6Q35.6-17.6 34.3-15.35 33-13.1 33-10.25L33-10.25Q33-9.75 33.27-8.35 33.55-6.95 33.75-6.6L33.75-6.6Q33.9-6.25 34.52-5.63 35.15-5 36.07-4.53 37-4.05 38-4.05L38-4.05Q40.25-4.05 41.6-5.13 42.95-6.2 43.75-8L43.75-8ZM73.7-16.05Q74.09-15.35 74.34-14.03 74.59-12.7 74.59-11.65L74.59-11.65Q74.59-9.7 73.75-6.1L73.75-6.1Q70.3 0.2 63.55 0.2L63.55 0.2Q61.05 0.2 58.45-1.45 55.85-3.1 54.85-5.25L54.85-5.25Q53.5-9.55 53.5-10.7L53.5-10.7Q53.5-12.7 54.37-14.95 55.25-17.2 56.6-18.85L56.6-18.85Q57.45-20 59.65-20.83 61.85-21.65 63.65-21.65L63.65-21.65Q67.15-21.65 69.59-20.33 72.05-19 73.7-16.05L73.7-16.05ZM69.34-8Q69.59-8.65 69.59-11.35L69.59-11.35Q69.59-12.8 69.07-14.2 68.55-15.6 67.55-16.6L67.55-16.6Q67.45-16.7 67-16.93 66.55-17.15 65.77-17.38 65-17.6 64-17.6L64-17.6Q61.2-17.6 59.9-15.35 58.6-13.1 58.6-10.25L58.6-10.25Q58.6-9.75 58.87-8.35 59.15-6.95 59.35-6.6L59.35-6.6Q59.5-6.25 60.12-5.63 60.75-5 61.67-4.53 62.6-4.05 63.6-4.05L63.6-4.05Q65.84-4.05 67.2-5.13 68.55-6.2 69.34-8L69.34-8ZM99.44-31.3Q99.44-30.8 99.19-28.55L99.19-28.55Q98.64-23.05 98.64-17.4L98.64-17.4Q98.64-12.45 98.79-9.85 98.94-7.25 99.54-5.88 100.14-4.5 101.39-4.5L101.39-4.5Q103.79-4.5 103.79-2.9L103.79-2.9Q103.79-1.85 102.74-1.13 101.69-0.4 100.44-0.4L100.44-0.4Q98.94-0.4 97.64-1.1 96.34-1.8 95.59-3.25L95.59-3.25Q94.54-1.7 92.57-0.78 90.59 0.15 88.74 0.15L88.74 0.15Q85.89 0.15 83.69-1.05 81.49-2.25 80.29-4.33 79.09-6.4 79.09-8.9L79.09-8.9Q79.09-11.3 79.67-13.53 80.24-15.75 81.24-17.2L81.24-17.2Q82.59-19.1 84.87-20.23 87.14-21.35 89.34-21.35L89.34-21.35Q90.69-21.35 91.89-20.83 93.09-20.3 93.99-19.55L93.99-19.55Q93.99-22.9 93.94-23.75L93.94-23.75 93.94-24.8Q93.94-29.45 94.54-31.6L94.54-31.6Q95.09-33.7 97.19-33.7L97.19-33.7Q98.34-33.7 98.89-33.2 99.44-32.7 99.44-31.3L99.44-31.3ZM84.04-9Q84.04-6.7 85.37-5.3 86.69-3.9 88.54-3.9L88.54-3.9Q91.19-3.9 92.47-5.55 93.74-7.2 93.74-9.8L93.74-9.8 93.69-14.75Q91.74-16.9 89.64-16.9L89.64-16.9Q88.19-16.9 86.92-16.18 85.64-15.45 84.89-14L84.89-14Q84.04-12.35 84.04-9L84.04-9ZM109.64-32.1Q111.39-31.95 112.69-31.18 113.99-30.4 113.99-28.85L113.99-28.85Q113.99-27.7 112.91-27.03 111.84-26.35 110.34-26.35L110.34-26.35Q108.89-26.35 108.34-27.1 107.79-27.85 107.79-28.65L107.79-28.65Q107.79-30.15 108.11-31.15 108.44-32.15 109.64-32.1L109.64-32.1ZM113.64-18.95L113.64-9.95 113.64-8.5Q113.64-6.55 113.77-4.83 113.89-3.1 114.09-1.35L114.09-1.35Q114.04-0.85 113.34-0.33 112.64 0.2 112.09 0.2L112.09 0.2Q111.14 0.2 110.16-0.18 109.19-0.55 108.99-1.1L108.99-1.1Q108.69-2.7 108.69-3.95L108.69-3.95Q108.69-8.05 108.44-13.15L108.44-13.15Q108.24-17.65 108.24-19.45L108.24-19.45Q108.24-20.35 109.14-21 110.04-21.65 111.04-21.65L111.04-21.65Q112.49-21.65 113.06-21 113.64-20.35 113.64-18.95L113.64-18.95ZM119.49-10.6Q119.49-12.5 120.19-14.43 120.89-16.35 122.04-17.95L122.04-17.95Q123.19-19.55 125.69-20.58 128.19-21.6 130.14-21.6L130.14-21.6Q132.14-21.6 134.21-21.05 136.29-20.5 137.09-19.35L137.09-19.35Q138.94-16.75 138.94-14.25L138.94-14.25Q138.94-12.9 138.36-11.95 137.79-11 136.74-9.9L136.74-9.9Q135.89-9 134.06-8.7 132.24-8.4 130.44-8.4L130.44-8.4Q129.29-8.4 127.64-8.63 125.99-8.85 124.44-9.2L124.44-9.2Q124.54-8.2 124.94-7.25 125.34-6.3 125.89-5.8L125.89-5.8Q126.89-4.85 127.96-4.6 129.04-4.35 130.74-4.35L130.74-4.35Q132.54-4.35 134.09-4.95L134.09-4.95Q135.34-5.4 136.14-5.4L136.14-5.4Q137.09-5.4 137.59-4.83 138.09-4.25 138.09-3.35L138.09-3.35Q138.09-2.1 136.64-1.3 135.19-0.5 133.31-0.13 131.44 0.25 130.29 0.25L130.29 0.25Q127.94 0.25 125.74-0.6 123.54-1.45 122.09-3L122.09-3Q120.89-4.4 120.19-6.38 119.49-8.35 119.49-10.6L119.49-10.6ZM130.39-17.35Q129.29-17.35 128.19-16.93 127.09-16.5 126.39-15.75L126.39-15.75Q125.49-14.8 125.16-14.23 124.84-13.65 124.74-12.65L124.74-12.65Q125.99-12.25 129.94-12.25L129.94-12.25Q132.09-12.25 133.26-12.9 134.44-13.55 134.44-14.6L134.44-14.6Q134.44-15.65 133.14-16.5 131.84-17.35 130.39-17.35L130.39-17.35Z" opacity="1" transform="matrix(1,0,0,1,0,0)" fill="black" class="wordmark-text-0" id="SvgjsPath2636"></path></svg></g></svg></g></svg></g></svg></g><g transform="matrix(1,0,0,1,69.58873577948364,0)"><svg viewBox="0 0 52.822528441032716 66.55654820834873" height="66.55654820834873" width="52.822528441032716"><g><svg xmlns="http://www.w3.org/2000/svg" xmlns:xlink="http://www.w3.org/1999/xlink" version="1.1" x="0" y="0" viewBox="30.450000000000003 43.923 39.038 49.188" enable-background="new 0 0 100 100" xml:space="preserve" height="66.55654820834873" width="52.822528441032716" class="icon-icon-0" data-fill-palette-color="accent" id="SvgjsSvg2635"><g fill="black"><path fill="black" d="M38.836 76.902c-3.083 0-5.654-2.312-6.029-5.338-0.062-0.158-0.097-0.328-0.097-0.507V45.393c0-0.812 0.658-1.47 1.47-1.47h9.281c0.812 0 1.47 0.658 1.47 1.47v25.665c0 0.135-0.019 0.266-0.052 0.39C44.557 74.53 41.96 76.902 38.836 76.902zM35.65 70.663c0.03 0.101 0.048 0.206 0.054 0.315 0.091 1.673 1.466 2.984 3.132 2.984s3.041-1.312 3.132-2.984c0.003-0.066 0.011-0.131 0.023-0.193V46.862H35.65V70.663z"></path></g><g fill="black"><path fill="black" d="M38.753 92.444c-0.812 0-1.47-0.658-1.47-1.47V76.309c0-0.812 0.658-1.47 1.47-1.47s1.47 0.658 1.47 1.47v14.666C40.224 91.786 39.565 92.444 38.753 92.444z"></path></g><g fill="black"><path fill="black" d="M45.586 93.111H31.92c-0.812 0-1.47-0.658-1.47-1.47s0.658-1.47 1.47-1.47h13.666c0.812 0 1.47 0.658 1.47 1.47S46.398 93.111 45.586 93.111z"></path></g><g fill="black"><path fill="black" d="M59.104 92.444c-0.812 0-1.47-0.658-1.47-1.47V76.309c0-0.812 0.658-1.47 1.47-1.47s1.47 0.658 1.47 1.47v14.666C60.574 91.786 59.916 92.444 59.104 92.444z"></path></g><g fill="black"><path fill="black" d="M65.937 93.111H52.271c-0.812 0-1.47-0.658-1.47-1.47s0.658-1.47 1.47-1.47h13.666c0.812 0 1.47 0.658 1.47 1.47S66.749 93.111 65.937 93.111z"></path></g><g fill="black"><path fill="black" d="M42.253 54.279h-7.334c-0.812 0-1.47-0.658-1.47-1.47s0.658-1.47 1.47-1.47h7.334c0.812 0 1.47 0.658 1.47 1.47S43.065 54.279 42.253 54.279z"></path></g><g fill="black"><path fill="black" d="M62.054 77.579h-5.578c-4.099 0-7.433-3.334-7.433-7.433 0-0.121 0.015-0.242 0.045-0.359l2.834-11.244c0.165-0.653 0.752-1.11 1.425-1.11h11.836c0.673 0 1.261 0.457 1.425 1.11l2.835 11.244c0.03 0.117 0.045 0.238 0.045 0.359C69.488 74.245 66.153 77.579 62.054 77.579zM51.986 70.316c0.089 2.399 2.069 4.323 4.49 4.323h5.578c2.421 0 4.401-1.924 4.491-4.323l-2.507-9.944h-9.545L51.986 70.316z"></path></g><g fill="black"><path fill="black" d="M67.253 70.526H51.586c-0.812 0-1.47-0.658-1.47-1.47s0.658-1.47 1.47-1.47h15.667c0.812 0 1.47 0.658 1.47 1.47S68.065 70.526 67.253 70.526z"></path></g></svg></g></svg></g><g></g></svg></g></svg></g></svg></g></svg></g><defs><mask></mask></defs></svg><rect width="320" height="360" fill="black" stroke="none" visibility="hidden"></rect></g></mask></svg><rect width="320" height="360" fill="black" stroke="none" visibility="hidden"></rect></g></mask></svg><rect width="320" height="360" fill="black" stroke="none" visibility="hidden"></rect></g></mask><linearGradient x1="0" x2="1" y1="0.5" y2="0.5" id="aea0a9f3-2888-41d0-8935-0a07ed6db7ab"><stop stop-color="#ffa62e" offset="0"></stop><stop stop-color="#f71b3d" offset="1"></stop></linearGradient></svg><rect width="320" height="360" fill="none" stroke="none" visibility="hidden"></rect></g></svg></g></svg>